<?xml version="1.0" standalone="yes"?>
<svg xmlns="http://www.w3.org/2000/svg" width="467" height="467">
<path style="fill:#f9f9f9; stroke:none;" d="M0 0L0 467L467 467L467 0L0 0z"/>
<path style="fill:#d9095c; stroke:none;" d="M232 82C219.538 94.4617 204.148 106.594 194 121C201.443 117.529 205.682 109.796 213 106C213.849 102.97 215.776 101.226 218.008 98.9854C222.52 94.4559 228.352 85.7759 235 85C233.897 83.5434 233.457 83.1034 232 82z"/>
<path style="fill:#ff99c2; stroke:none;" d="M233 82L234 83L233 82z"/>
<path style="fill:#ffb1d9; stroke:none;" d="M234 83L235 84L234 83z"/>
<path style="fill:#fa0c6c; stroke:none;" d="M213 106C205.604 108.525 206.166 111.933 209 118L237 118C241.758 118 247.25 117.252 251.91 118.299C256.11 119.241 260.061 122.279 264 124C263.387 122.339 262.957 121.517 262 120L263 119L269 124C270.898 115.379 260.484 110.865 255.259 105.745C249.789 100.384 245.021 94.361 239.035 89.5602C237.098 88.0073 234.741 84.7719 231.91 85.4614C227.459 86.5458 223.107 92.8855 220 96C216.911 99.0961 213.744 101.643 213 106z"/>
<path style="fill:#ff98d0; stroke:none;" d="M235 84L236 85L235 84z"/>
<path style="fill:#d50058; stroke:none;" d="M235 85C236.482 88.104 237.896 89.5179 241 91C239.205 88.4925 237.508 86.7952 235 85z"/>
<path style="fill:#ffa5d0; stroke:none;" d="M236 85L237 86L236 85z"/>
<path style="fill:#ff9bd3; stroke:none;" d="M237 86L238 87L237 86z"/>
<path style="fill:#ffa0d1; stroke:none;" d="M238 87L239 88L238 87z"/>
<path style="fill:#ff97cc; stroke:none;" d="M239 88L240 89L239 88z"/>
<path style="fill:#ff99c2; stroke:none;" d="M240 89L241 90L240 89z"/>
<path style="fill:#ff95c7; stroke:none;" d="M241 90L242 91L241 90z"/>
<path style="fill:#ffa8d3; stroke:none;" d="M242 91L243 92L242 91z"/>
<path style="fill:#ff98cf; stroke:none;" d="M243 92L244 93L243 92z"/>
<path style="fill:#ffa9d1; stroke:none;" d="M244 93L245 94L244 93z"/>
<path style="fill:#ff97c7; stroke:none;" d="M245 94L246 95L245 94z"/>
<path style="fill:#d60a5e; stroke:none;" d="M245 95C246.324 97.6866 247.313 98.6759 250 100C248.451 97.8643 247.136 96.5489 245 95z"/>
<path style="fill:#ffa5cf; stroke:none;" d="M246 95L247 96L246 95z"/>
<path style="fill:#ff96cd; stroke:none;" d="M247 96L248 97L247 96z"/>
<path style="fill:#ff9bcb; stroke:none;" d="M248 97L249 98L248 97z"/>
<path style="fill:#ff93c8; stroke:none;" d="M249 98L250 99L249 98z"/>
<path style="fill:#ffa4cf; stroke:none;" d="M250 99L251 100L250 99z"/>
<path style="fill:#ff99d1; stroke:none;" d="M251 100L252 101L251 100z"/>
<path style="fill:#ffa5d2; stroke:none;" d="M252 101L253 102L252 101z"/>
<path style="fill:#ff96cb; stroke:none;" d="M253 102L254 103L253 102z"/>
<path style="fill:#d51062; stroke:none;" d="M253 103C254.324 105.687 255.313 106.676 258 108C256.451 105.864 255.136 104.549 253 103z"/>
<path style="fill:#ff9aca; stroke:none;" d="M254 103L255 104L254 103z"/>
<path style="fill:#ff93c8; stroke:none;" d="M255 104L256 105L255 104z"/>
<path style="fill:#ff9ac4; stroke:none;" d="M256 105L257 106L256 105z"/>
<path style="fill:#ff99c6; stroke:none;" d="M257 106L258 107L257 106z"/>
<path style="fill:#ffa7ce; stroke:none;" d="M258 107L259 108L258 107z"/>
<path style="fill:#ff9cd2; stroke:none;" d="M259 108L260 109L259 108z"/>
<path style="fill:#ffacd2; stroke:none;" d="M260 109L261 110L260 109z"/>
<path style="fill:#ff99ba; stroke:none;" d="M146.667 110.333C146.222 110.778 147.278 110.722 147.333 110.667C147.778 110.222 146.722 110.278 146.667 110.333z"/>
<path style="fill:#ff98c6; stroke:none;" d="M261 110L262 111L261 110z"/>
<path style="fill:#ec4a82; stroke:none;" d="M318 110L315 114C316.662 113.387 317.483 112.957 319 112C321.967 117.948 328.743 123.921 334 128L335 127C330.53 120.654 324.346 114.47 318 110z"/>
<path style="fill:#e38aaa; stroke:none;" d="M145 111L146 112L145 111z"/>
<path style="fill:#ca3e6f; stroke:none;" d="M146.667 111.333C146.222 111.778 147.278 111.722 147.333 111.667C147.778 111.222 146.722 111.278 146.667 111.333z"/>
<path style="fill:#ffacca; stroke:none;" d="M148 111L149 112L148 111z"/>
<path style="fill:#ffa0c7; stroke:none;" d="M262 111L263 112L262 111z"/>
<path style="fill:#f687b0; stroke:none;" d="M144 112L145 113L144 112z"/>
<path style="fill:#ff4b88; stroke:none;" d="M137 125C132.635 125.574 131.209 128.653 127.871 131.215C122.433 135.39 113.531 138.808 115 147L119 145C118.014 146.479 118 146.203 118 148C122.469 147.708 126.623 146.361 131.015 146.054C135.311 145.753 139.761 146.776 144 146.3C147.12 145.95 149.807 144.24 152.999 144.059C156.216 143.877 159.049 145.352 162.17 145.325C166.024 145.292 173.793 144.228 173.793 138.995C173.793 134.366 165.982 128.982 163 126C156.951 119.951 146.608 105.399 139.475 118.285C138.334 120.345 137.706 122.77 137 125z"/>
<path style="fill:#ffaad0; stroke:none;" d="M149 112L150 113L149 112z"/>
<path style="fill:#f9106c; stroke:none;" d="M197 119C198.304 122.347 198.862 125.412 199 129C202.363 129 205.204 129.716 206 126C212.923 128.473 219.706 128 227 128L256 128C255.91 125.251 256.943 120.909 254.385 119.024C251.462 116.869 245.426 118 242 118L209 118C208.333 115.695 207.297 114.035 206 112C202.37 113.691 199.842 116.189 197 119z"/>
<path style="fill:#ff94c8; stroke:none;" d="M263 112L264 113L263 112z"/>
<path style="fill:#ff5087; stroke:none;" d="M318 112C307.449 119.259 301.704 132.55 290 138C292.437 142.987 297.355 145.306 302 148C304.61 143.267 309.098 144 314 144C322.585 143.999 331.28 145.247 339 141C339.654 144.054 341.007 143.936 344 144L343 140C344.826 141.336 345.753 141.69 348 142C344.756 137.581 340.978 133.409 336 131C336.986 129.522 337 129.797 337 128L336 127C334.203 127 334.479 127.014 333 128C329.363 121.777 323.387 116.724 318 112z"/>
<path style="fill:#e289a8; stroke:none;" d="M143 113L144 114L143 113z"/>
<path style="fill:#fba3c5; stroke:none;" d="M150 113L151 114L150 113z"/>
<path style="fill:#ff93c4; stroke:none;" d="M264 113L265 114L264 113z"/>
<path style="fill:#f08caf; stroke:none;" d="M142 114L143 115L142 114z"/>
<path style="fill:#ff9bc5; stroke:none;" d="M151 114L152 115L151 114z"/>
<path style="fill:#ff95c6; stroke:none;" d="M265 114L266 115L265 114z"/>
<path style="fill:#e989aa; stroke:none;" d="M141 115L142 116L141 115z"/>
<path style="fill:#ffa2c3; stroke:none;" d="M152 115L153 116L152 115z"/>
<path style="fill:#ffacd6; stroke:none;" d="M266 115L267 116L266 115z"/>
<path style="fill:#f985b0; stroke:none;" d="M140 116L141 117L140 116z"/>
<path style="fill:#ffa2cc; stroke:none;" d="M153 116L154 117L153 116z"/>
<path style="fill:#ff99ce; stroke:none;" d="M267 116L268 117L267 116z"/>
<path style="fill:#ffa5c7; stroke:none;" d="M154 117L155 118L154 117z"/>
<path style="fill:#ffa1cd; stroke:none;" d="M268 117L269 118L268 117z"/>
<path style="fill:#f889b2; stroke:none;" d="M138 118L139 119L138 118z"/>
<path style="fill:#ffa0c7; stroke:none;" d="M155 118L156 119L155 118z"/>
<path style="fill:#ff9dcf; stroke:none;" d="M269 118L270 119L269 118z"/>
<path style="fill:#ed4980; stroke:none;" d="M124 134C128.839 131.672 131.884 126.262 137 125C137.894 122.958 138.536 121.172 139 119C133.306 121.879 126.959 128.313 124 134z"/>
<path style="fill:#fba6c4; stroke:none;" d="M156 119L157 120L156 119z"/>
<path style="fill:#f9136b; stroke:none;" d="M263 119L262 120L264 124C259.019 120.945 255.507 121.445 256 128C239.51 128 222.008 129.762 206 126C204.177 128.818 202.285 128.895 199 129C198.96 125.892 198.868 122.989 198 120C195.854 120.504 194.021 121.119 192 122C190.329 127.963 183.658 131.301 181 137C182.457 135.897 182.897 135.457 184 134L186 136C187.459 134.688 188.157 133.769 189 132C195.404 135.082 203.033 134 210 134L250 134C256.423 134 266.726 132.004 272 136C275.022 135.75 278.526 136.45 279 133L284 136C282.368 130.592 275.021 126.051 271 122C269.365 122.545 269.545 122.365 269 124C267.106 122.025 265.292 120.492 263 119z"/>
<path style="fill:#ff9bcb; stroke:none;" d="M270 119L271 120L270 119z"/>
<path style="fill:#ff9cc2; stroke:none;" d="M157 120L158 121L157 120z"/>
<path style="fill:#df1565; stroke:none;" d="M270 120C272.174 124.662 275.997 129.393 281 131C277.964 126.69 274.31 123.036 270 120z"/>
<path style="fill:#ff97c9; stroke:none;" d="M271 120L272 121L271 120z"/>
<path style="fill:#f6a0bf; stroke:none;" d="M158 121L159 122L158 121z"/>
<path style="fill:#fc9bc2; stroke:none;" d="M272 121L273 122L272 121z"/>
<path style="fill:#f78bb1; stroke:none;" d="M134 122L135 123L134 122z"/>
<path style="fill:#fd9abd; stroke:none;" d="M159 122L160 123L159 122z"/>
<path style="fill:#ff9dc9; stroke:none;" d="M273 122L274 123L273 122z"/>
<path style="fill:#eb8fad; stroke:none;" d="M133 123L134 124L133 123z"/>
<path style="fill:#f5a5bf; stroke:none;" d="M160 123L161 124L160 123z"/>
<path style="fill:#dc1162; stroke:none;" d="M175 140C182.02 136.726 188.574 129.283 193 123C185.98 126.274 179.426 133.717 175 140z"/>
<path style="fill:#ffafd7; stroke:none;" d="M274 123L275 124L274 123z"/>
<path style="fill:#e3427a; stroke:none;" d="M305 123L301 128C303.517 126.753 305.083 125.895 305 123z"/>
<path style="fill:#f686ad; stroke:none;" d="M132 124L133 125L132 124z"/>
<path style="fill:#ffa9c6; stroke:none;" d="M161 124L162 125L161 124z"/>
<path style="fill:#ff9ed1; stroke:none;" d="M275 124L276 125L275 124z"/>
<path style="fill:#e68aaa; stroke:none;" d="M131 125L132 126L131 125z"/>
<path style="fill:#fba0be; stroke:none;" d="M162 125L163 126L162 125z"/>
<path style="fill:#ffa9d1; stroke:none;" d="M276 125L277 126L276 125z"/>
<path style="fill:#ffa8c4; stroke:none;" d="M163 126L164 127L163 126z"/>
<path style="fill:#ffa1cd; stroke:none;" d="M277 126L278 127L277 126z"/>
<path style="fill:#f6a8c1; stroke:none;" d="M164 127L165 128L164 127z"/>
<path style="fill:#ff9ec4; stroke:none;" d="M278 127L279 128L278 127z"/>
<path style="fill:#ffa6c7; stroke:none;" d="M165 128L166 129L165 128z"/>
<path style="fill:#ff96c4; stroke:none;" d="M279 128L280 129L279 128z"/>
<path style="fill:#e85085; stroke:none;" d="M291 138C295.585 135.865 299.415 132.353 302 128C297.314 130.185 293.958 133.802 291 138z"/>
<path style="fill:#faa3c4; stroke:none;" d="M166 129L167 130L166 129z"/>
<path style="fill:#ff9dc4; stroke:none;" d="M280 129L281 130L280 129z"/>
<path style="fill:#e85385; stroke:none;" d="M336 130C338.646 133.039 341.288 135.397 345 137C342.924 134.048 340.545 131.564 338 129L336 130z"/>
<path style="fill:#f08faf; stroke:none;" d="M126 130L127 131L126 130z"/>
<path style="fill:#ff9fc4; stroke:none;" d="M167 130L168 131L167 130z"/>
<path style="fill:#ff8ebf; stroke:none;" d="M281 130L282 131L281 130z"/>
<path style="fill:#f096b4; stroke:none;" d="M125 131L126 132L125 131z"/>
<path style="fill:#f4a5c1; stroke:none;" d="M168 131L169 132L168 131z"/>
<path style="fill:#ffafd6; stroke:none;" d="M282 131L283 132L282 131z"/>
<path style="fill:#ffa0c4; stroke:none;" d="M169 132L170 133L169 132z"/>
<path style="fill:#fa186c; stroke:none;" d="M189 132C188.455 133.635 188.635 133.455 187 134L190 142C199.413 145.362 210.086 144 220 144L274 144C273.783 141.169 273.372 140.561 271 139C275.117 137.962 277.153 139.972 281 141C279.014 137.051 276.388 135.64 272 136C268.204 131.656 255.527 134 250 134L212 134C204.178 134 196.445 134.713 189 132z"/>
<path style="fill:#ff9dcb; stroke:none;" d="M283 132L284 133L283 132z"/>
<path style="fill:#e794af; stroke:none;" d="M123 133L124 134L123 133z"/>
<path style="fill:#f8a5c0; stroke:none;" d="M170 133L171 134L170 133z"/>
<path style="fill:#f8196c; stroke:none;" d="M279 133L278 138C279.457 139.103 279.897 139.543 281 141C277.176 139.369 275.168 137.536 271 139C272.248 139.685 272.548 139.749 274 140L274 144L224 144C212.449 144 201.204 144.633 190 142C189.452 138.254 187.75 136.521 185 134C174.366 139.813 161.098 148.593 156 160C158.488 158.934 166.306 148.624 167 154C169.889 151.531 173.694 149.603 175 146C183.28 148.448 193.393 147 202 147L253 147C264.248 147 278.199 149.193 289 146C289 147.797 289.014 147.521 290 149L296 148L290 141L292 142C289.717 139.013 286.72 137.577 285 134L282 136C280.999 134.076 280.923 133.902 279 133z"/>
<path style="fill:#ffa1c8; stroke:none;" d="M284 133L285 134L284 133z"/>
<path style="fill:#ffa4c7; stroke:none;" d="M171 134L172 135L171 134z"/>
<path style="fill:#ffa0cd; stroke:none;" d="M285 134L286 135L285 134z"/>
<path style="fill:#f4a8c0; stroke:none;" d="M172 135L173 136L172 135z"/>
<path style="fill:#da1962; stroke:none;" d="M285 135C286.324 137.687 287.313 138.676 290 140C288.451 137.864 287.136 136.549 285 135z"/>
<path style="fill:#ff9bc6; stroke:none;" d="M286 135L287 136L286 135z"/>
<path style="fill:#ffa1c5; stroke:none;" d="M173 136L174 137L173 136z"/>
<path style="fill:#ff9bc8; stroke:none;" d="M287 136L288 137L287 136z"/>
<path style="fill:#ee98b5; stroke:none;" d="M119 137L120 138L119 137z"/>
<path style="fill:#f79fbd; stroke:none;" d="M174 137L175 138L174 137z"/>
<path style="fill:#ffa5ce; stroke:none;" d="M288 137L289 138L288 137z"/>
<path style="fill:#ea5988; stroke:none;" d="M345 137C346.138 140.808 348.193 142.87 352 144C349.96 141.12 347.88 139.04 345 137z"/>
<path style="fill:#ff8cc2; stroke:none;" d="M175 138L176 139L175 138z"/>
<path style="fill:#ff8ec1; stroke:none;" d="M289 138L290 139L289 138z"/>
<path style="fill:#ef9cb5; stroke:none;" d="M117 139L118 140L117 139z"/>
<path style="fill:#ff5489; stroke:none;" d="M343 140L344 144C341.311 143.582 340.446 143.283 339 141C329.993 144.521 321.607 143.996 312 144C307.633 144.002 303.56 143.299 302 148C299.885 146.427 298.53 145.648 296 145C300.583 151.454 308.869 160.451 316 164C314.225 160.239 312.04 155.404 308 154L309 150C317.92 154.484 328.233 153 338 153C343.64 153 349.564 153.607 355 152C355.701 154.811 356.941 157.304 358 160C359.195 159.402 358.977 159.534 360 158C361.001 160.797 361.256 163.046 361 166L365 166C363.398 154.173 352.596 145.703 343 140z"/>
<path style="fill:#ec96b0; stroke:none;" d="M115 141L116 142L115 141z"/>
<path style="fill:#f91c6c; stroke:none;" d="M290 141C291.438 143.986 293.029 145.547 296 147L290 149L289 146C281.578 147.767 273.591 147 266 147L228 147L195 147C188.341 147 181.513 147.551 175 146C173.617 148.317 172.513 148.963 170 150C171.792 152.29 173.071 154.242 174 157C186.662 151.334 203.207 154 217 154C238.271 154 259.745 153.133 280.996 154.019C284.195 154.153 286.91 156.386 289.92 156.404C291.743 156.414 293.337 155.159 295.09 154.795C298.267 154.134 301.802 154.724 305 155C301.999 149.377 295.827 143.617 290 141z"/>
<path style="fill:#ffb2d2; stroke:none;" d="M112 144L113 145L112 144z"/>
<path style="fill:#df5883; stroke:none;" d="M113 144C111.242 146.012 110.084 147.581 109 150C111.348 148.227 113.084 146.999 113 144z"/>
<path style="fill:#ff568a; stroke:none;" d="M118 148L119 145C116.987 145.501 115.961 145.637 114 145C109.193 149.613 104.16 153.489 102 160C103.344 159.552 104.617 159.461 106 159L107 157C108.94 157 108.127 161.366 109 157L111 160C120.777 154.783 133.528 160.095 144 157C139.276 155.018 133.09 156 128 156L128 154C134.346 154 140.792 153.522 147 155L146 157C151.481 157.814 153.583 152.316 159 156C162.094 152.259 165.914 149.436 168 145C159.326 143.393 151.55 145.164 143 146.01C134.604 146.841 126.375 146.984 118 148z"/>
<path style="fill:#e35c87; stroke:none;" d="M352 144C353.004 148.778 356.26 152.01 360 155C358.295 150.591 355.55 147.103 352 144z"/>
<path style="fill:#ffa5c2; stroke:none;" d="M108 149L109 150L108 149z"/>
<path style="fill:#fe5e8a; stroke:none;" d="M309 150L308 154C312.217 156.433 314.059 161.658 316.844 165.59C321.344 171.944 326.675 177.47 331 184C331.815 181.354 331.213 178.774 331 176L359 176C363.27 176.002 367.713 175.231 369 180C373.614 175.948 368.62 168.076 366 164L361 166C361.356 164.306 361.648 156.436 359 160L355 152C349.099 153.405 343.033 153 337 153C327.038 153 318.427 153.346 309 150z"/>
<path style="fill:#fa206c; stroke:none;" d="M166 151C161.649 154.512 157.688 158.024 155 163C157.711 163.577 158.395 163.767 159 161C163.27 163.991 168.954 163 174 163L205 163L271 163C281.252 163 292.884 161.462 302.985 163.225C308.046 164.108 310.965 168.791 316 170C315.588 157.514 300.134 150.18 290 157L292 160L200 160C187.452 160 173.226 163.31 166 151z"/>
<path style="fill:#f91f6b; stroke:none;" d="M292 160C286.518 151.24 273.926 154 265 154L202 154C192.891 154 181.939 152.001 174 157C173.536 154.774 169.023 148.348 168.175 154.02C167.753 156.846 172.135 158.857 174.286 159.505C180.712 161.438 189.323 160 196 160L292 160z"/>
<path style="fill:#f6b1c6; stroke:none;" d="M358 151L359 152L358 151z"/>
<path style="fill:#ee9fb4; stroke:none;" d="M105 153L106 154L105 153z"/>
<path style="fill:#ff5d8a; stroke:none;" d="M146 157L147 155C140.986 153.222 134.243 154 128 154L128 156L144 156C137.857 160.365 125.454 158 118 158C114.925 158 110.422 160.166 110 157C108.805 157.598 109.023 157.466 108 159C107.232 157.686 107.314 157.768 106 157C100.171 162.428 95.8525 168.677 95 177C96.9464 174.832 97.9843 172.734 99 170C99.9857 171.478 100 171.203 100 173L106 171C107.426 179.211 123.536 176 130 176C130.158 181.383 130.641 185.588 130 191C132.796 187.614 134.318 183.413 136.901 179.83C141.437 173.538 146.533 168.427 151.995 162.985C153.468 161.518 159.385 156.45 156.342 154.086C153.981 152.253 148.841 156.884 146 157z"/>
<path style="fill:#fda3bc; stroke:none;" d="M360 154L361 155L360 154z"/>
<path style="fill:#ffb7cd; stroke:none;" d="M102 157L103 158L102 157z"/>
<path style="fill:#ef9bb2; stroke:none;" d="M101 159L102 160L101 159z"/>
<path style="fill:#f9266b; stroke:none;" d="M155 159C149.631 164.365 143.436 169.121 140 176C142.078 177.085 143.923 179.069 146.209 179.687C152.696 181.439 161.295 180 168 180C174.556 180 180.891 179.245 186 184L179 184C179.294 186.702 179.165 189.289 179 192C187.444 187.536 196 182.187 206 183.104C211.657 183.623 218.738 186.011 223.715 188.75C226.419 190.238 228.765 193.066 231.986 193.422C235.37 193.796 237.572 190.67 240.09 188.961C244.962 185.655 250.23 184.798 254 180C258.462 181.993 259.848 179.912 264.09 178.548C267.61 177.416 271.414 177.119 275 176C275 177.797 275.014 177.521 276 179C279.113 177.905 281.687 176.919 285 177C284.014 178.478 284 178.203 284 180L321 180C319.461 177.821 318.645 177.427 316 177C316.957 175.483 317.387 174.661 318 173C316.199 172.438 314.878 172.176 313 172C313.176 173.878 313.438 175.199 314 177L306 177L307 173C294.349 167.63 278.69 170 265 170L194 170C182.382 170 169.016 168.065 158 172L158 168C155.425 168.542 154.105 169.578 152 168L151 172C149.316 171.776 148.687 171.782 147 172C149.122 167.736 156.052 163.995 155 159z"/>
<path style="fill:#ffa4bc; stroke:none;" d="M364 160L365 161L364 160z"/>
<path style="fill:#fb236c; stroke:none;" d="M159 161C155.434 165.61 149.096 165.057 147 172L151 172L152 168C153.023 169.534 152.805 169.402 154 170L158 168L158 172C179.659 166.91 204.689 170 227 170L276 170C283.538 170 292.543 168.653 299.91 170.299C302.39 170.852 304.54 172.337 307 173L306 177L314 177L313 172L318 173L316 177C323.708 179.358 322.968 188.652 330 192C330.674 184.162 325.446 175.013 318.829 170.671C316.803 169.341 314.294 169.28 312.184 168.115C309.595 166.685 307.868 164.216 304.907 163.419C300.325 162.186 294.713 163 290 163L197 163L173 163C168.06 163 163.426 163.462 159 161z"/>
<path style="fill:#cc6280; stroke:none;" d="M364 161C364.684 162.58 364.805 162.777 366 164C365.316 162.42 365.195 162.223 364 161z"/>
<path style="fill:#f5b0c4; stroke:none;" d="M99 162L100 163L99 162z"/>
<path style="fill:#e76486; stroke:none;" d="M99 163C95.6961 168.661 92.5213 174.595 91 181C94.4691 177.158 99.8697 168.222 99 163z"/>
<path style="fill:#ffb8cc; stroke:none;" d="M366 163L367 164L366 163z"/>
<path style="fill:#d35678; stroke:none;" d="M366.333 164.667C366.278 164.722 366.222 165.778 366.667 165.333C366.722 165.278 366.778 164.222 366.333 164.667z"/>
<path style="fill:#ffacc3; stroke:none;" d="M367 165L368 166L367 165z"/>
<path style="fill:#ee2a66; stroke:none;" d="M316 166C317.454 170.572 321.412 173.556 324.325 177.285C327.169 180.928 328.913 184.936 331 189C333.026 185.643 331.021 183.129 329.046 180C325.738 174.761 321.601 168.836 316 166z"/>
<path style="fill:#ef9eb4; stroke:none;" d="M368 167L369 168L368 167z"/>
<path style="fill:#fda0b9; stroke:none;" d="M369 169L370 170L369 169z"/>
<path style="fill:#ff688b; stroke:none;" d="M99 170C97.8291 172.312 96.8247 174.546 96 177C94.9774 175.466 95.1954 175.598 94 175C91.713 180.875 83.5168 192.335 90 198C89.9036 194.616 90.97 192.668 93 190C99.9246 195.246 111.926 190.439 120 194C121.731 192.994 123.053 192.454 125 192C123.886 198.001 124 203.917 124 210C125.548 206.552 125.847 202.614 127.079 199C128.623 194.468 131.473 189.031 131.481 184.17C131.486 181.47 130.179 178.758 130 176C123.172 176 108.535 179.027 106 171C102.861 171.208 101.393 172.259 99 170z"/>
<path style="fill:#e9a3b4; stroke:none;" d="M370 171L371 172L370 171z"/>
<path style="fill:#e86a87; stroke:none;" d="M370 172C371.272 177.908 374.129 183.262 376 189C377.552 183.75 373.503 175.88 370 172z"/>
<path style="fill:#ffb2c6; stroke:none;" d="M372 175L373 176L372 175z"/>
<path style="fill:#fa2c6c; stroke:none;" d="M139 176C138.242 181.007 134.246 184.187 133.179 189C132.476 192.17 133.837 195.778 134 199C137.368 198.198 140.545 198.01 144 198L144 202L159 202L160 198L162 198C163.235 200.758 164.242 201.765 167 203L167 198C168.915 199.277 168.085 199.277 170 198L168 193C169.28 194.337 170.03 195.4 171 197L179 193C179.362 189.836 179.821 187.101 179 184L186 184C183.128 179.962 178.625 180.009 174 180C165.76 179.984 157.223 180.66 149.015 179.941C145.125 179.601 142.782 176.633 139 176z"/>
<path style="fill:#fb2a6c; stroke:none;" d="M255 180L250 183C256.655 185.047 264.927 181.932 271.999 183.38C278.101 184.628 281.862 189.654 288 191C291.058 186.283 298.926 188 304 188L304 192L328 192C326.11 188.961 324.423 183.033 321.5 181.027C318.605 179.04 313.328 180 310 180L284 180L285 177C281.441 176.39 279.213 177.397 276 179L275 176C269.18 177.195 260.48 181.545 255 180z"/>
<path style="fill:#fe688b; stroke:none;" d="M331 176C331.451 186.465 336.793 197.497 341 207C343.512 202.723 342.385 197.559 341 193C344.011 195.328 346.75 198.014 350.439 199.272C356.383 201.298 363.737 200.528 370 202C370.651 199.566 371.16 198.717 373 197L373 202L379 204C378.796 195.301 376.049 185.682 372 178L369 180C369.986 178.521 370 178.797 370 177C358.357 173.558 343.133 176 331 176z"/>
<path style="fill:#fb346b; stroke:none;" d="M138 177C133.216 184.555 127.706 193.111 125.939 202C125.34 205.013 125.916 207.972 125.676 211C125.3 215.73 123.987 220.324 125 225C126.537 223.375 127.954 221.438 130.106 220.599C132.795 219.551 136.173 220 139 220C145.715 220 156 217.895 161 223C163.761 219.56 162.949 215.293 166 212C164.95 203.929 171.583 201.177 175 195L171 197C170.151 195.009 169.733 194.222 168 193C168.487 195.056 168.952 196.144 170 198L167 198L167 203C164.72 201.511 163.489 200.28 162 198L160 198L159 202L144 202L144 198C140.514 198.002 137.35 198.01 134 199C133.927 195.786 132.562 191.793 133.576 188.715C134.963 184.504 139.462 181.662 138 177z"/>
<path style="fill:#ffb4c8; stroke:none;" d="M373 177L374 178L373 177z"/>
<path style="fill:#fab8c5; stroke:none;" d="M91 178L92 179L91 178z"/>
<path style="fill:#cf265b; stroke:none;" d="M197 183C200.959 184.661 205.737 184 210 184C206.041 182.339 201.263 183 197 183z"/>
<path style="fill:#d4265e; stroke:none;" d="M253 183C257.724 184.982 263.91 184 269 184C264.276 182.018 258.09 183 253 183z"/>
<path style="fill:#e92f69; stroke:none;" d="M269 183C272.319 185.929 276.663 187.254 281 188C277.717 184.416 273.771 183.245 269 183z"/>
<path style="fill:#cb3162; stroke:none;" d="M193 184C194.248 184.685 194.548 184.749 196 185C194.752 184.315 194.452 184.251 193 184z"/>
<path style="fill:#f693b1; stroke:none;" d="M196.667 184.333C196.222 184.778 197.278 184.722 197.333 184.667C197.778 184.222 196.722 184.278 196.667 184.333z"/>
<path style="fill:#ffc9dc; stroke:none;" d="M198 184C199.248 184.685 199.548 184.749 201 185C199.752 184.315 199.452 184.251 198 184z"/>
<path style="fill:#f9f9f9; stroke:none;" d="M233 196C213.062 177.814 179.667 181.248 167.493 207C164.363 213.621 163.72 220.77 164.039 228C164.671 242.291 173.408 251.408 183 261L205 283L225 302.999C227.195 305.178 230.417 309.548 234 308.654C238.48 307.537 242.86 301.14 246 298L275 269C287.954 256.046 302.125 243.875 301.406 224C300.913 210.388 295.453 198.818 284 190.8C269.705 180.793 244.25 181.63 233 196z"/>
<path style="fill:#d86d8b; stroke:none;" d="M210.667 184.333C210.222 184.778 211.278 184.722 211.333 184.667C211.778 184.222 210.722 184.278 210.667 184.333z"/>
<path style="fill:#ca3260; stroke:none;" d="M250 184C251.248 184.685 251.548 184.749 253 185C251.752 184.315 251.452 184.251 250 184z"/>
<path style="fill:#f68faf; stroke:none;" d="M253 184C254.248 184.685 254.548 184.749 256 185C254.752 184.315 254.452 184.251 253 184z"/>
<path style="fill:#ffbfd8; stroke:none;" d="M265 184C266.248 184.685 266.548 184.749 268 185C266.752 184.315 266.452 184.251 265 184z"/>
<path style="fill:#d6597f; stroke:none;" d="M268.667 184.333C268.222 184.778 269.278 184.722 269.333 184.667C269.778 184.222 268.722 184.278 268.667 184.333z"/>
<path style="fill:#ff9bbc; stroke:none;" d="M192.667 185.333C192.222 185.778 193.278 185.722 193.333 185.667C193.778 185.222 192.722 185.278 192.667 185.333z"/>
<path style="fill:#ffaace; stroke:none;" d="M214 185L215 186L214 185z"/>
<path style="fill:#ff729c; stroke:none;" d="M215 185L216 186L215 185z"/>
<path style="fill:#db386a; stroke:none;" d="M244 186C246.163 186.676 247.732 186.387 250 186C247.761 185.189 246.353 185.471 244 186z"/>
<path style="fill:#ffc9e4; stroke:none;" d="M250.667 185.333C250.222 185.778 251.278 185.722 251.333 185.667C251.778 185.222 250.722 185.278 250.667 185.333z"/>
<path style="fill:#ff86ad; stroke:none;" d="M272 185L273 186L272 185z"/>
<path style="fill:#f594ac; stroke:none;" d="M88.3333 186.667C88.2777 186.722 88.2222 187.778 88.6667 187.333C88.7221 187.278 88.7778 186.222 88.3333 186.667z"/>
<path style="fill:#ffb4cd; stroke:none;" d="M190 186L191 187L190 186z"/>
<path style="fill:#eb80a1; stroke:none;" d="M218 186L219 187L218 186z"/>
<path style="fill:#ffb0c7; stroke:none;" d="M247 186L248 187L247 186z"/>
<path style="fill:#f584a4; stroke:none;" d="M275 186L276 187L275 186z"/>
<path style="fill:#ff90b3; stroke:none;" d="M187 187L188 188L187 187z"/>
<path style="fill:#ffa8cd; stroke:none;" d="M220 187L221 188L220 187z"/>
<path style="fill:#c72b5a; stroke:none;" d="M242.667 187.333C242.222 187.778 243.278 187.722 243.333 187.667C243.778 187.222 242.722 187.278 242.667 187.333z"/>
<path style="fill:#f4769a; stroke:none;" d="M244 187L245 188L244 187z"/>
<path style="fill:#ffa8ca; stroke:none;" d="M277 187L278 188L277 187z"/>
<path style="fill:#d2436d; stroke:none;" d="M183.667 188.333C183.222 188.778 184.278 188.722 184.333 188.667C184.778 188.222 183.722 188.278 183.667 188.333z"/>
<path style="fill:#ff97b5; stroke:none;" d="M185 188L186 189L185 188z"/>
<path style="fill:#feb0c9; stroke:none;" d="M222 188L223 189L222 188z"/>
<path style="fill:#cb295a; stroke:none;" d="M223.667 188.333C223.222 188.778 224.278 188.722 224.333 188.667C224.778 188.222 223.722 188.278 223.667 188.333z"/>
<path style="fill:#be345f; stroke:none;" d="M240.667 188.333C240.222 188.778 241.278 188.722 241.333 188.667C241.778 188.222 240.722 188.278 240.667 188.333z"/>
<path style="fill:#e97d9e; stroke:none;" d="M242 188L243 189L242 188z"/>
<path style="fill:#ee7598; stroke:none;" d="M280 188L281 189L280 188z"/>
<path style="fill:#fb346b; stroke:none;" d="M288 188L287 192C293.142 196.634 297.882 205.648 300 213C300.874 210.948 300.953 209.253 301 207L302 211L336 211C339.021 202.538 337.351 196.062 334 188C331.508 188.97 330.854 189.475 330 192L304 192L304 188L288 188z"/>
<path style="fill:#f597ad; stroke:none;" d="M377.333 188.667C377.278 188.722 377.222 189.778 377.667 189.333C377.722 189.278 377.778 188.222 377.333 188.667z"/>
<path style="fill:#e99aac; stroke:none;" d="M87.3333 189.667C87.2777 189.722 87.2223 190.778 87.6667 190.333C87.7221 190.278 87.7778 189.222 87.3333 189.667z"/>
<path style="fill:#ff82a9; stroke:none;" d="M183 189L184 190L183 189z"/>
<path style="fill:#ffa6c4; stroke:none;" d="M224 189L225 190L224 189z"/>
<path style="fill:#c75475; stroke:none;" d="M237 192C238.457 190.897 238.897 190.457 240 189C237.876 189.899 237.899 189.876 237 192z"/>
<path style="fill:#ed779c; stroke:none;" d="M240 189L241 190L240 189z"/>
<path style="fill:#fe728c; stroke:none;" d="M92 190C90.4675 192.822 89.7343 194.787 90 198L87 196C85.5743 201.988 86.5071 207.923 86 214C87.416 211.958 87.7451 210.489 88 208L90 208L90 212C99.112 212 107.672 213.009 116 209C116.578 211.697 117.261 211.789 120 212L121 207C121.722 209.418 121.948 211.472 122 214L124 214C124 206.567 124.068 199.374 125 192C122.877 192.307 122.314 192.382 121 194C111.949 189.694 101.292 193.938 92 190z"/>
<path style="fill:#ed7798; stroke:none;" d="M226 190L227 191L226 190z"/>
<path style="fill:#ffb9cb; stroke:none;" d="M239 190L240 191L239 190z"/>
<path style="fill:#f18aa7; stroke:none;" d="M283 190L284 191L283 190z"/>
<path style="fill:#cc3261; stroke:none;" d="M284 190C285.223 191.195 285.42 191.316 287 192C285.777 190.805 285.58 190.684 284 190z"/>
<path style="fill:#ff768d; stroke:none;" d="M377 190C377.113 194.807 378.755 199.223 379 204C376.918 202.902 375.33 202.315 373 202L373 197C370.717 198.446 370.418 199.311 370 202C363.967 199.845 358.186 201.08 352.171 199.54C347.812 198.425 344.835 195.029 341 193C343.127 201.835 341.994 211.9 342 221C347.455 217.591 360.343 220 367 220C369.269 220 373.91 220.885 375.833 219.5C378.43 217.631 379 210.955 379 208C382.993 217.462 381 229.874 381 240C382.769 235.785 382 230.536 382 226C382 214.413 382.865 200.455 377 190z"/>
<path style="fill:#d96a83; stroke:none;" d="M87 191L86 198C87.663 195.565 88.0777 193.773 87 191z"/>
<path style="fill:#f998b3; stroke:none;" d="M180 191L181 192L180 191z"/>
<path style="fill:#ffa1c1; stroke:none;" d="M227 191L228 192L227 191z"/>
<path style="fill:#ffb3c6; stroke:none;" d="M86.3333 192.667C86.2777 192.722 86.2223 193.778 86.6667 193.333C86.7222 193.278 86.7778 192.222 86.3333 192.667z"/>
<path style="fill:#ffb9d4; stroke:none;" d="M179 192L180 193L179 192z"/>
<path style="fill:#d6829c; stroke:none;" d="M286 192L287 193L286 192z"/>
<path style="fill:#e5376c; stroke:none;" d="M287 192C288.549 194.136 289.864 195.451 292 197C290.676 194.313 289.687 193.324 287 192z"/>
<path style="fill:#df8f9c; stroke:none;" d="M378.333 192.667C378.278 192.722 378.222 193.778 378.667 193.333C378.722 193.278 378.778 192.222 378.333 192.667z"/>
<path style="fill:#c8577a; stroke:none;" d="M175 196C176.457 194.897 176.897 194.457 178 193C175.876 193.899 175.899 193.876 175 196z"/>
<path style="fill:#f5709c; stroke:none;" d="M230 193L231 194L230 193z"/>
<path style="fill:#e592ab; stroke:none;" d="M287 193L288 194L287 193z"/>
<path style="fill:#d77e9b; stroke:none;" d="M231 194L232 195L231 194z"/>
<path style="fill:#d15880; stroke:none;" d="M232 194L232 196C233.635 195.455 233.455 195.635 234 194L232 194z"/>
<path style="fill:#ffaeca; stroke:none;" d="M288 194L289 195L288 194z"/>
<path style="fill:#ffacc5; stroke:none;" d="M289 195L290 196L289 195z"/>
<path style="fill:#d97692; stroke:none;" d="M174 196L175 197L174 196z"/>
<path style="fill:#ffabc5; stroke:none;" d="M290 196L291 197L290 196z"/>
<path style="fill:#e19ca6; stroke:none;" d="M85.3333 197.667C85.2777 197.722 85.2223 198.778 85.6667 198.333C85.7222 198.278 85.7778 197.222 85.3333 197.667z"/>
<path style="fill:#ffb2cc; stroke:none;" d="M291 197L292 198L291 197z"/>
<path style="fill:#ff8daf; stroke:none;" d="M292 198L293 199L292 198z"/>
<path style="fill:#e18093; stroke:none;" d="M85 199L84 206C85.4659 203.55 85.9653 201.705 85 199z"/>
<path style="fill:#fc3c6b; stroke:none;" d="M337 199C337.561 203.562 337.029 206.606 336 211L302 211L302 207C299.696 212.49 302.443 217.457 302.892 223C303.295 227.97 301.915 233.144 301 238C312.018 235.377 326.898 235.939 338 238C339.039 225.386 347.044 210.396 337 199z"/>
<path style="fill:#e53769; stroke:none;" d="M169 200C167.1 203.644 165.445 206.882 165 211C167.543 207.733 169.542 203.874 171 200L169 200z"/>
<path style="fill:#ffa4c1; stroke:none;" d="M171 200L172 201L171 200z"/>
<path style="fill:#f2b1bc; stroke:none;" d="M380.333 200.667C380.278 200.722 380.222 201.778 380.667 201.333C380.722 201.278 380.778 200.222 380.333 200.667z"/>
<path style="fill:#ffb6d3; stroke:none;" d="M294 201L295 202L294 201z"/>
<path style="fill:#f48caa; stroke:none;" d="M295 202L296 203L295 202z"/>
<path style="fill:#ff768d; stroke:none;" d="M85 203L85 237C89.0778 232.63 89.9954 229.99 90 224L93 224L94 232L114 232C114.003 227.614 113.738 224.195 117 221C117.18 224.847 116.937 228.259 116 232L122 233C123.648 224.122 122.183 215.871 122 207C120.579 208.788 120.303 209.706 120 212C117.703 211.326 117.226 211.035 116 209C107.093 211.974 99.4584 212 90 212L90 208L88 208L87 214C86.5049 210.209 86.6814 206.506 85 203z"/>
<path style="fill:#ffa5c1; stroke:none;" d="M169 203L170 204L169 203z"/>
<path style="fill:#ffafcc; stroke:none;" d="M296 204L297 205L296 204z"/>
<path style="fill:#ffbaca; stroke:none;" d="M381 205L381 208C381.696 206.446 381.696 206.554 381 205z"/>
<path style="fill:#ffd5dc; stroke:none;" d="M83.3333 206.667C83.2777 206.722 83.2223 207.778 83.6667 207.333C83.7221 207.278 83.7778 206.222 83.3333 206.667z"/>
<path style="fill:#f37d8e; stroke:none;" d="M84 206C82.2911 219.522 81.9219 235.93 86 249C87.424 245.349 85.16 241.839 85.0185 237.996C84.6671 228.456 87.701 214.82 84 206z"/>
<path style="fill:#ea4465; stroke:none;" d="M125 206C123.415 217.77 123.062 228.12 124 240C125.785 235.736 124.14 231.467 124.054 227C123.926 220.341 127.612 212.284 125 206z"/>
<path style="fill:#ef6f8f; stroke:none;" d="M167 206L168 207L167 206z"/>
<path style="fill:#fdb1c0; stroke:none;" d="M83.3333 208.667C83.2777 208.722 83.2223 209.778 83.6667 209.333C83.7221 209.278 83.7778 208.222 83.3333 208.667z"/>
<path style="fill:#ff838e; stroke:none;" d="M379 208C378.774 211.487 377.935 216.906 374.687 218.976C372.058 220.651 367.964 220 365 220C357.719 220 350.12 220.695 343 219C342.924 228.163 341.606 236.815 342 246C348.025 246 343.534 255.301 350 256C351.579 246.096 364.981 252.512 371 246L372 251C374.124 250.101 374.101 250.124 375 248C376.023 249.534 375.805 249.402 377 250C381.492 241.369 381 231.46 381 222C381 217.192 381.541 212.242 379 208z"/>
<path style="fill:#fcb3c7; stroke:none;" d="M166 209L167 210L166 209z"/>
<path style="fill:#f68ca9; stroke:none;" d="M299 210L300 211L299 210z"/>
<path style="fill:#dd3764; stroke:none;" d="M164 212C163.428 214.377 163.11 216.558 163 219C164.289 216.57 164.806 214.639 164 212z"/>
<path style="fill:#f77799; stroke:none;" d="M300 213L301 214L300 213z"/>
<path style="fill:#f5b8be; stroke:none;" d="M382 213L382 219C382.951 216.715 382.951 215.285 382 213z"/>
<path style="fill:#ffc5d4; stroke:none;" d="M164.333 215.667C164.278 215.722 164.222 216.778 164.667 216.333C164.722 216.278 164.778 215.222 164.333 215.667z"/>
<path style="fill:#ffafbf; stroke:none;" d="M82 216L82 230C83.6668 226.028 83.6668 219.972 82 216z"/>
<path style="fill:#e48ca1; stroke:none;" d="M301 217L301 220C301.696 218.446 301.696 218.554 301 217z"/>
<path style="fill:#d93b64; stroke:none;" d="M302 219L302 230C303.431 226.59 303.431 222.41 302 219z"/>
<path style="fill:#e39ba3; stroke:none;" d="M382 219L382 230C383.431 226.59 383.431 222.41 382 219z"/>
<path style="fill:#fb3d6b; stroke:none;" d="M124 224L125 244C125.935 242.003 126.341 239.32 128.317 238.027C130.691 236.473 134.311 237.001 137 237C144.144 236.997 158.033 233.931 161 242C161.779 240.231 161.912 238.964 162 237L163 239C165.031 236.969 163 234.274 163 231C163 228.105 162.62 221.572 160 220C158.724 219.234 154.539 220 153 220L135 220C133.461 220 129.277 219.234 128 220C126.486 220.909 126.103 223.621 125 225L124 224z"/>
<path style="fill:#ff96ad; stroke:none;" d="M163 220L163 227C164.059 224.466 164.059 222.534 163 220z"/>
<path style="fill:#ffcfdb; stroke:none;" d="M301 220L301 224C301.71 222.241 301.71 221.76 301 220z"/>
<path style="fill:#ff848e; stroke:none;" d="M115 221C113.919 224.657 114 228.199 114 232L94 232L93 224L90 224C89.9922 226.211 90.2287 228.686 89.4151 230.792C88.2281 233.865 85.5871 235.469 85.2076 239.001C84.286 247.578 88.3787 255.807 90 264C91.1954 263.402 90.9774 263.534 92 262C93.2259 264.035 93.7026 264.326 96 265C94.2358 259.435 93.6353 254.732 95 249C96.043 251.095 96.6028 252.699 97 255L114 255C114.332 251.931 114.884 250.244 117 248L118 256C121.036 255 121.494 254.137 121 251L124 250L126 254C129.486 248.499 123.52 236.528 123 230C122.315 231.248 122.251 231.548 122 233C119.894 232.356 118.205 232.094 116 232C117.275 228.202 117.566 224.968 117 221L115 221z"/>
<path style="fill:#db3c65; stroke:none;" d="M162 221L162 227C162.951 224.715 162.951 223.285 162 221z"/>
<path style="fill:#fb456b; stroke:none;" d="M342 221C340.207 226.524 338.255 232.165 338 238C330.578 236.233 322.591 237 315 237C311.245 237 306.673 236.327 303.059 237.514C299.37 238.725 295.121 247.052 299.449 249.731C301.543 251.028 304.702 250.127 307 250.039C314.119 249.764 320.999 248.066 328 248C330.722 247.975 333.809 247.365 336 249C341.616 244.368 341.344 236.791 342.155 230C342.539 226.784 343.24 224.04 342 221z"/>
<path style="fill:#ffcdd8; stroke:none;" d="M301 226L301 230C301.71 228.24 301.71 227.759 301 226z"/>
<path style="fill:#e96c8b; stroke:none;" d="M163 227L163 230C163.696 228.446 163.696 228.554 163 227z"/>
<path style="fill:#dc7f8b; stroke:none;" d="M83 228L83 237C84.2561 234.006 84.2561 230.994 83 228z"/>
<path style="fill:#ffd8e0; stroke:none;" d="M82 230L82 234C82.7102 232.241 82.7102 231.759 82 230z"/>
<path style="fill:#dc3b64; stroke:none;" d="M163 230C163.11 232.442 163.428 234.623 164 237C164.806 234.361 164.289 232.43 163 230z"/>
<path style="fill:#dc778b; stroke:none;" d="M301.333 230.667C301.278 230.722 301.222 231.778 301.667 231.333C301.722 231.278 301.778 230.222 301.333 230.667z"/>
<path style="fill:#f9c5ca; stroke:none;" d="M382 230L382 235C382.83 232.97 382.83 232.03 382 230z"/>
<path style="fill:#f9a4b9; stroke:none;" d="M164.333 232.667C164.278 232.722 164.222 233.778 164.667 233.333C164.722 233.278 164.778 232.222 164.333 232.667z"/>
<path style="fill:#db446a; stroke:none;" d="M301 232L300 239C301.466 236.55 301.965 234.706 301 232z"/>
<path style="fill:#eea7ab; stroke:none;" d="M83 237L83 240C83.6961 238.446 83.6961 238.554 83 237z"/>
<path style="fill:#fc466c; stroke:none;" d="M129 256C129.888 253.54 129.467 251.585 129 249C138.408 251.781 150.21 250 160 250C152.562 252.199 143.729 251 136 251L136 253C143.278 253 151.841 251.75 158.961 253.299C161.43 253.836 163.575 255.311 166 256C167.522 252.921 168.83 253.191 172 254C171.151 252.009 170.733 251.222 169 250C169.717 245.434 166.261 241.764 166 237C163.214 237.557 163.691 239.765 163 237C162.221 238.769 162.088 240.036 162 242C157.679 233.967 145.021 236.999 137 237C134.227 237 128.988 236.073 127.032 238.603C124.126 242.361 127.732 252.002 129 256z"/>
<path style="fill:#d998a4; stroke:none;" d="M299 238L300 239L299 238z"/>
<path style="fill:#c04e64; stroke:none;" d="M166 240L166 243C166.696 241.446 166.696 241.554 166 240z"/>
<path style="fill:#ffb6cb; stroke:none;" d="M298 240L299 241L298 240z"/>
<path style="fill:#ff8a90; stroke:none;" d="M341 240C339.597 244.98 338.699 250.231 336.663 255C334.621 259.781 331.57 264.039 330 269C333.193 267.881 333.625 266.284 334 263L336 263L336 268C346.576 268 356.46 266 367 266L368 259L374 265C379.244 260.176 376.883 254.28 376 248L372 251C371.824 249.122 371.562 247.801 371 246C369.097 247.521 367.363 249.186 364.907 249.722C358.698 251.077 350.678 247.296 350 256C345.559 253.552 346.801 247.109 342 246C341.953 243.747 341.874 242.052 341 240z"/>
<path style="fill:#f38796; stroke:none;" d="M379 240C378.943 245.164 374.012 252.729 379 256C379.68 250.645 380.888 245.415 381 240L379 240z"/>
<path style="fill:#fdadbb; stroke:none;" d="M381 240L381 243C381.696 241.446 381.696 241.554 381 240z"/>
<path style="fill:#fd4a6a; stroke:none;" d="M298 241C296.366 244.817 294.736 249.359 292.28 252.715C289.33 256.747 285.212 259.429 283 264L286 263C284.42 266.588 280.985 269.104 285 272L287 267C297.247 270.029 310.33 268 321 268L320 265L323 265L322 268L326 268C325.043 269.517 324.613 270.339 324 272C332.732 267.531 337.735 256.349 339 247C337.584 247.472 337.186 247.814 336 249C333.866 247.137 330.809 247.962 328 247.996C321.183 248.078 314.9 249.957 308 250.003C305.375 250.02 300.772 250.962 298.951 248.477C297.508 246.507 298.66 243.265 298 241z"/>
<path style="fill:#fb95a9; stroke:none;" d="M167 242L168 243L167 242z"/>
<path style="fill:#ce3959; stroke:none;" d="M167.333 243.667C167.278 243.722 167.222 244.778 167.667 244.333C167.722 244.278 167.778 243.222 167.333 243.667z"/>
<path style="fill:#e3475f; stroke:none;" d="M126 244L126 248C126.71 246.241 126.71 245.759 126 244z"/>
<path style="fill:#eb859a; stroke:none;" d="M168 244L169 245L168 244z"/>
<path style="fill:#ffbec5; stroke:none;" d="M84 245L84 248C84.6961 246.446 84.6961 246.554 84 245z"/>
<path style="fill:#ffb9ca; stroke:none;" d="M169 245L170 246L169 245z"/>
<path style="fill:#d59398; stroke:none;" d="M85 246L85 251C85.8299 248.97 85.8299 248.03 85 246z"/>
<path style="fill:#ffa8b7; stroke:none;" d="M295 246L296 247L295 246z"/>
<path style="fill:#efb6bc; stroke:none;" d="M380 246L380 249C380.696 247.446 380.696 247.554 380 246z"/>
<path style="fill:#f894a8; stroke:none;" d="M170 247L171 248L170 247z"/>
<path style="fill:#fe908f; stroke:none;" d="M115 248C114.428 250.377 114.11 252.558 114 255L97 255C96.7451 252.511 96.416 251.042 95 249C93.3958 254.427 93.8055 259.799 96 265C94.0514 264.064 93.4498 263.608 92 262C89.5163 268.428 96.5525 281.499 102 285C104.089 281.488 105.998 280.836 110 281C110.058 278.216 110.352 275.709 111 273C112.182 275.43 112.73 277.313 113 280L127 280L128 275C130.601 277.153 131.493 278.656 132 282L139 282C137.347 280.487 136.106 279.819 134 279C135.218 276.882 135.867 276.155 138 275C138.744 277.68 139.529 278.719 142 280C142.182 274.966 138.496 271.884 135.861 267.83C132.784 263.097 130.641 257.952 128 253L126 254C124.461 251.5 123.914 250.917 121 251C120.899 253.905 120.524 254.565 118 256L117 248L115 248z"/>
<path style="fill:#fc4d6a; stroke:none;" d="M169 249L172 254C168.782 252.831 167.02 252.424 166 256C156.495 251.747 146.334 253 136 253L136 251L160 251C150.867 247.168 138.768 251.325 129 249C130.149 258.083 133.048 264.344 138 272C150.646 265.323 166.814 268 181 268C179.814 269.186 179.416 269.528 178 270L178 272L179 273L181 273C183.308 270.874 184.344 270.19 187 272L192 271C186.049 262.552 177.544 256.035 171 248L169 249z"/>
<path style="fill:#e88d9d; stroke:none;" d="M293 249L294 250L293 249z"/>
<path style="fill:#ffaec3; stroke:none;" d="M292 250L293 251L292 250z"/>
<path style="fill:#ee5574; stroke:none;" d="M293 250L258 285C251.582 291.418 244.234 297.57 239 305C244.872 302.966 248.514 297.543 252.845 293.282C262.33 283.951 271.639 274.455 281.011 265.014C284.534 261.465 293.768 255.417 293 250z"/>
<path style="fill:#f28da0; stroke:none;" d="M173 251L174 252L173 251z"/>
<path style="fill:#f495a7; stroke:none;" d="M174 252L175 253L174 252z"/>
<path style="fill:#ec8aa0; stroke:none;" d="M175 253L176 254L175 253z"/>
<path style="fill:#dc92a7; stroke:none;" d="M176 254L177 255L176 254z"/>
<path style="fill:#e296aa; stroke:none;" d="M177 255L178 256L177 255z"/>
<path style="fill:#ed8e97; stroke:none;" d="M87 256C88.5391 266.422 93.8699 282.031 102 289C98.9599 277.453 90.0798 268.369 89 256L87 256z"/>
<path style="fill:#f493a5; stroke:none;" d="M178 256L179 257L178 256z"/>
<path style="fill:#f497a5; stroke:none;" d="M179 257L180 258L179 257z"/>
<path style="fill:#f594a6; stroke:none;" d="M180 258L181 259L180 258z"/>
<path style="fill:#f090a2; stroke:none;" d="M181 259L182 260L181 259z"/>
<path style="fill:#ff9390; stroke:none;" d="M368 259L367 266C356.439 266 346.563 268 336 268L336 263L334 263C332.911 268.229 328.511 270.11 325.196 274.019C315.792 285.107 303.359 294.133 295 306C304.126 302.462 308.129 291.761 316.914 287.965C320.355 286.479 325.325 287.768 329.004 287.881C339.001 288.188 348.222 288.706 358 290C358.836 286.098 360.2 282.863 363 280C363.176 281.878 363.438 283.199 364 285C368.34 281.396 375.428 270.137 373.233 264.26C372.358 261.918 369.913 260.411 368 259z"/>
<path style="fill:#fe97ab; stroke:none;" d="M182 260L183 261L182 260z"/>
<path style="fill:#f392a5; stroke:none;" d="M183 261L184 262L183 261z"/>
<path style="fill:#f197a5; stroke:none;" d="M184 262L185 263L184 262z"/>
<path style="fill:#f192a1; stroke:none;" d="M185 263L186 264L185 263z"/>
<path style="fill:#fc546b; stroke:none;" d="M265 280C265.777 282.846 266.615 285.392 268 288L270 288L270 286C279.984 288.377 296.31 283.117 304 291C315.551 288.114 324.149 278.17 330 268C327.799 269.111 326 270.542 324 272L326 268L322 268C322.986 266.521 323 266.797 323 265L320 265C320 266.797 320.014 266.521 321 268C310.02 268 297.715 269.551 287 267C286.066 268.723 285.465 270.106 285 272C283.521 271.014 283.797 271 282 271C283.24 268.185 285.18 265.986 286 263C277.328 264.337 271.502 274.599 265 280z"/>
<path style="fill:#de8e95; stroke:none;" d="M375 263L373 270C374.981 267.723 375.866 265.952 375 263z"/>
<path style="fill:#ee8d9f; stroke:none;" d="M186 264L187 265L186 264z"/>
<path style="fill:#f493a5; stroke:none;" d="M187 265L188 266L187 265z"/>
<path style="fill:#f68ba0; stroke:none;" d="M188 266L189 267L188 266z"/>
<path style="fill:#f58fa1; stroke:none;" d="M189 267L190 268L189 267z"/>
<path style="fill:#fd506c; stroke:none;" d="M139 271C141.444 278.369 147.67 281.824 153 287L158 284L157 280C165.447 278.015 173.271 278.003 182 278C185.368 277.999 189.698 277.145 192.91 278.27C196.505 279.529 199.731 283.006 203 285C199.967 278.339 195.165 270.321 187 272C184.753 269.435 182.812 270.482 181 273L179 273L178 272L178 270C179.797 270 179.521 269.986 181 269C177.041 267.339 172.26 268 168 268C158.658 268 147.137 265.876 139 271z"/>
<path style="fill:#fa9ea6; stroke:none;" d="M190 268L191 269L190 268z"/>
<path style="fill:#fa94a0; stroke:none;" d="M191 269L192 270L191 269z"/>
<path style="fill:#e397a9; stroke:none;" d="M192 270L193 271L192 270z"/>
<path style="fill:#ffc4c3; stroke:none;" d="M373.333 270.667C373.278 270.722 373.222 271.778 373.667 271.333C373.722 271.278 373.778 270.222 373.333 270.667z"/>
<path style="fill:#e098a9; stroke:none;" d="M193 271L194 272L193 271z"/>
<path style="fill:#f4949e; stroke:none;" d="M194 272L195 273L194 272z"/>
<path style="fill:#e79594; stroke:none;" d="M371 272C370.009 274.706 369.287 277.132 369 280C370.852 277.554 371.886 274.863 373 272L371 272z"/>
<path style="fill:#ff9a90; stroke:none;" d="M111 273C110.19 275.729 110.021 278.15 110 281C104.452 280.469 99.5993 283.581 102.434 289.83C104.129 293.565 108.676 297.964 112.286 299.861C116.995 302.336 123.828 301.998 129 302C137.326 302.003 145.769 302.993 153.985 302.478C158.01 302.226 160.967 304.098 165 303C161.535 300.713 158.11 300.096 154 300L154 298C156.908 298.083 158.692 298.241 161 300C161.687 296.576 159.313 294.437 156.981 292C152.466 287.283 147.08 279.407 140 280L138 275C135.475 275.854 134.97 276.508 134 279L139 281C136.582 281.722 134.528 281.948 132 282C131.731 278.435 131.168 276.744 128 275L127 280L113 280C112.858 277.19 112.591 275.314 111 273z"/>
<path style="fill:#f79da4; stroke:none;" d="M195 273L196 274L195 273z"/>
<path style="fill:#f699a5; stroke:none;" d="M196 274L197 275L196 274z"/>
<path style="fill:#f196a5; stroke:none;" d="M197 275L198 276L197 275z"/>
<path style="fill:#f59aa8; stroke:none;" d="M198 276L199 277L198 276z"/>
<path style="fill:#fc596c; stroke:none;" d="M157 280L158 284C155.823 284.756 154.715 285.45 153 287C150.951 284.168 149.166 282.48 146 281C150.377 287.213 158.068 296.202 166 297.785C168.863 298.357 172.042 296.842 175 296.888C185.998 297.058 197 297 208 297C197.399 300.133 185.601 295.867 175 299L176 303C186.398 303 197.71 304.263 208 302.718C211.121 302.249 213.95 300.74 217 300C214.694 290.84 205.78 282.032 198 277C199.333 279.92 201.203 282.337 203 285C200.288 282.729 197.126 279.443 193.83 278.074C190.704 276.776 186.326 277.983 183 277.999C174.222 278.042 165.343 277.02 157 280z"/>
<path style="fill:#f499a8; stroke:none;" d="M199 277L200 278L199 277z"/>
<path style="fill:#ef95a1; stroke:none;" d="M200 278L201 279L200 278z"/>
<path style="fill:#f496a2; stroke:none;" d="M201 279L202 280L201 279z"/>
<path style="fill:#fe9e90; stroke:none;" d="M361 280C359.789 283.364 358.444 286.436 358 290C349.167 288.031 341.043 288.44 332 287.914C327.701 287.664 322.114 286.145 317.911 287.194C313.806 288.218 302.067 297.34 306.943 302.204C308.945 304.201 314.271 302.522 317 303C320.069 301.019 323.406 301.955 327 301.996C334.715 302.084 343.551 300.954 350 306C358.649 301.783 364.079 289.146 363 280L361 280z"/>
<path style="fill:#f198a6; stroke:none;" d="M203 281L204 282L203 281z"/>
<path style="fill:#fd5c6b; stroke:none;" d="M248 302C250.07 302.355 250.312 302.602 252 304C261.406 301.203 273.211 302.999 283 303C287.206 303 291.518 302.171 294 306C300.013 301.765 305.765 296.013 310 290C307.795 290.094 306.106 290.356 304 291C299.817 284.523 285.798 287.074 279 286.996C275.909 286.961 272.273 285.783 270 288L268 288C267.082 285.618 266.324 283.539 266 281C259.002 284.39 248.605 293.981 248 302z"/>
<path style="fill:#f19e9b; stroke:none;" d="M367 281C364.862 284.327 363.411 287.021 363 291C365.601 288.006 367.432 284.638 369 281L367 281z"/>
<path style="fill:#f696a1; stroke:none;" d="M205 283L206 284L205 283z"/>
<path style="fill:#faa0a6; stroke:none;" d="M206 284L207 285L206 284z"/>
<path style="fill:#fd9ba5; stroke:none;" d="M207 285L208 286L207 285z"/>
<path style="fill:#e19ba7; stroke:none;" d="M208 286L209 287L208 286z"/>
<path style="fill:#e7a0ab; stroke:none;" d="M209 287L210 288L209 287z"/>
<path style="fill:#f2949d; stroke:none;" d="M210 288L211 289L210 288z"/>
<path style="fill:#f39aa2; stroke:none;" d="M211 289L212 290L211 289z"/>
<path style="fill:#ef929e; stroke:none;" d="M212 290L213 291L212 290z"/>
<path style="fill:#db9e93; stroke:none;" d="M361 290L359 296C361.02 294.104 361.995 292.585 363 290L361 290z"/>
<path style="fill:#f299a2; stroke:none;" d="M213 291L214 292L213 291z"/>
<path style="fill:#ff9f91; stroke:none;" d="M103 292C107.051 299.111 112.034 306.248 120 309L120 306C128.586 311.769 135.915 311 146 311C150.741 311 157.146 309.598 160 314C162.715 312.5 164.928 311.44 168 311C166.779 308.475 166.648 307.582 169 306C168.933 310.137 171.088 311.341 175 312C173.398 308.564 166.059 297.798 162 300C159.351 298.142 157.214 298.035 154 298L154 300C158.048 300.208 161.338 301.297 165 303C158.197 304.212 150.006 302.059 143 301.835C133.798 301.541 122.907 303.774 114.09 300.276C109.748 298.554 107.1 294.151 103 292z"/>
<path style="fill:#faa0a8; stroke:none;" d="M214 292L215 293L214 292z"/>
<path style="fill:#fd606b; stroke:none;" d="M214 293L217 300C212.869 300.56 209.184 302.457 204.985 302.84C195.453 303.71 185.571 303 176 303L175 299C185.418 296.52 197.326 298 208 298C204.301 296.448 199.983 297 196 297C186.684 297 174.257 294.526 166 299C169.558 302.479 173.804 305.499 176 310L180 310C181.248 317.461 186.96 310.685 190 316C201.888 313.17 216.804 314.421 229 315C229 313.203 228.986 313.478 228 312L238 316L240 316C242.868 313.541 246.288 313.939 250 314.005C257.438 314.137 264.492 315.248 272 314.648C275.598 314.361 281.428 316.552 282 312C288.027 310.643 292.929 309.918 294 303L265 303C260.982 302.994 256.418 301.794 253 304C250.902 302.596 250.424 302.299 248 302C247.749 300.548 247.685 300.248 247 299C242.285 302.939 236.621 306.012 233 311C227.078 304.864 220.57 298.269 214 293z"/>
<path style="fill:#faa1aa; stroke:none;" d="M215 293L216 294L215 293z"/>
<path style="fill:#fff4e9; stroke:none;" d="M361 293L355 302C358.81 300.746 362.139 297.161 361 293z"/>
<path style="fill:#f09ba5; stroke:none;" d="M216 294L217 295L216 294z"/>
<path style="fill:#fe656a; stroke:none;" d="M160 295C165.559 302.892 173.643 310.589 181 316.853C185.063 320.312 189.548 320.912 192 326C194.297 325.326 194.774 325.035 196 323C201.901 324.095 207.091 323.074 213 323.004C222.997 322.885 233.002 323 243 323C252.195 323 263.158 324.614 272 322L273 325C279.662 322.386 284.932 316.775 289 311C286.273 310.656 284.617 311.089 282 312C281.392 316.655 276.369 313.977 273 314.25C264.786 314.915 257.179 314 249 314C245.772 314 241.711 313.03 240 316L238 316L238 314C234.073 314.451 231.655 313.027 228 312L229 315C222.803 314.116 216.274 315 210 315C203.463 315 196.299 314.138 190 316C187.938 309.682 182.129 316.848 180 310L176 310C174.217 303.955 165.876 297.023 160 295z"/>
<path style="fill:#f39aa6; stroke:none;" d="M217 295L218 296L217 295z"/>
<path style="fill:#ee9aa0; stroke:none;" d="M218 296L219 297L218 296z"/>
<path style="fill:#e65762; stroke:none;" d="M218 297C219.324 299.687 220.313 300.676 223 302C221.451 299.864 220.136 298.549 218 297z"/>
<path style="fill:#ee9c9f; stroke:none;" d="M219 297L220 298L219 297z"/>
<path style="fill:#f99ea7; stroke:none;" d="M220 298L221 299L220 298z"/>
<path style="fill:#ffa592; stroke:none;" d="M304 298C300.442 302.943 295.461 305.191 291 309.13C281.743 317.303 271.108 326.91 264 337C274.913 337.824 279.833 333.428 288 327L288 332L311 332C315.121 331.995 320.078 332.52 324.039 331.207C328.492 329.73 331.757 326.207 335 323C334.455 321.365 334.635 321.545 333 321C334.501 318.887 334.822 317.597 335 315L304 315L303 311L298.806 314.42C297.778 315.226 290.656 318.668 292.902 314.431C295.589 309.362 308.223 303.736 304 298z"/>
<path style="fill:#fba1a9; stroke:none;" d="M221 299L222 300L221 299z"/>
<path style="fill:#f79fa4; stroke:none;" d="M222 300L223 301L222 300z"/>
<path style="fill:#fc9ca1; stroke:none;" d="M223 301L224 302L223 301z"/>
<path style="fill:#ff9f91; stroke:none;" d="M317 303C308.597 300.736 301.052 304.165 296.035 310.605C294.912 312.047 291.489 313.625 291.921 315.81C293.036 321.442 301.033 312.622 302 311C302.957 312.517 303.387 313.339 304 315L335 315C334.692 317.363 334.17 318.925 333 321C338.725 321.085 343.298 315.088 346.926 311.001C348.095 309.684 350.258 307.597 349.504 305.599C348.811 303.761 344.406 302.869 342.715 302.455C337.069 301.075 330.769 302.295 325 301.91C321.893 301.703 319.216 300.562 317 303z"/>
<path style="fill:#e69fab; stroke:none;" d="M224 302L225 303L224 302z"/>
<path style="fill:#e9a4af; stroke:none;" d="M225 303L226 304L225 303z"/>
<path style="fill:#ffa592; stroke:none;" d="M120 306C119.738 314.372 131.522 322.295 137 328L141 326C143.68 330.015 149.614 328.007 154 328C166.249 327.98 178.79 327.16 191 328C188.395 322.414 182.965 317.078 178.039 313.371C174.195 310.478 170.269 311.339 169 306C166.159 306.609 165.258 308.428 168 310C165.004 311.103 162.588 312.112 160 314C159.145 310.008 155.53 311 152 311C144.739 311 136.12 312.29 129 310.889C125.571 310.214 123.242 307.185 120 306z"/>
<path style="fill:#f298a2; stroke:none;" d="M228 306L229 307L228 306z"/>
<path style="fill:#fff6eb; stroke:none;" d="M337 321C342.848 319.218 350.751 311.212 354 306C347.051 307.764 340.987 315.34 337 321z"/>
<path style="fill:#f0aba0; stroke:none;" d="M115 307C118.522 311.999 123.001 316.478 128 320C125.933 314.4 120.329 309.485 115 307z"/>
<path style="fill:#f89da9; stroke:none;" d="M229 307L230 308L229 307z"/>
<path style="fill:#fc9fa9; stroke:none;" d="M230 308L231 309L230 308z"/>
<path style="fill:#ff9ea2; stroke:none;" d="M231 309L232 310L231 309z"/>
<path style="fill:#ff9c9f; stroke:none;" d="M232 310L233 311L232 310z"/>
<path style="fill:#f2aaa1; stroke:none;" d="M128 320C132.235 326.013 137.987 331.765 144 336C141.261 330.126 134.323 321.927 128 320z"/>
<path style="fill:#fc6e6c; stroke:none;" d="M185 320C199.296 340.296 222.48 357.613 248 347.934C253.585 345.816 258.441 342.821 262 338C255.723 339.172 249.423 336.072 243 335.665C233.498 335.064 223.563 336 214 336L219 341C212.929 340.057 205.594 338.071 201.024 333.822C198.062 331.068 196.08 328.373 200 326C198.774 323.965 198.297 323.674 196 323C194.55 324.608 193.949 325.064 192 326C190.85 322.034 189.061 320.633 185 320z"/>
<path style="fill:#fd686a; stroke:none;" d="M219 341C217.617 338.683 216.513 338.037 214 337C223.483 334.197 238.162 334.889 248 336.127C251.694 336.591 255.246 339.553 259 338.968C265.663 337.928 272.381 329.138 276 324C274.203 324 274.479 324.014 273 325C273 323.203 272.986 323.478 272 322C250.124 327.208 226.103 319.421 204.039 323.769C195.76 325.4 195.671 330.53 202.005 335.513C206.418 338.986 213.476 340.504 219 341z"/>
<path style="fill:#ffa992; stroke:none;" d="M138 326C139.613 331.761 145.092 338.998 150.005 342.486C153.451 344.933 157.441 345.607 160 342C164.27 344.991 169.954 344 175 344C179.528 344 184.439 343.474 188.91 344.259C192.692 344.924 195.845 346.599 199.83 345.722C202.435 345.149 204.718 343.301 207 342C203.03 337.551 196.475 328.722 190.424 327.639C187.762 327.162 184.72 328.012 182 327.921C173.026 327.622 163.994 327.999 155 328C150.232 328 144.677 329.343 141 326L138 326z"/>
<path style="fill:#ffae91; stroke:none;" d="M286 327C282.534 331.822 277.886 335.374 272 336.776C269.014 337.488 265.838 336.672 263 338.028C256.759 341.01 251.432 345.952 245 349C247.368 350.319 248.375 350.18 250 348L253 349C256.478 345.884 259.772 347.747 264 347L262 342C265.5 343.757 268.395 346.768 272 348L272 344C284.214 344 296.854 345.014 309 344C308.014 345.479 308 345.203 308 347C315.531 344.886 322.6 336.246 327 330C314.686 333.622 300.728 332 288 332L288 327L286 327z"/>
<path style="fill:#ffb192; stroke:none;" d="M160 342C158.314 343.656 157.254 344.251 155 345C159.712 351.689 166.252 358.347 173 363L174 362L168 352C170.663 353.797 173.08 355.667 176 357L177 356C177 354.203 176.986 354.479 176 353L266 353C274.452 353 291.565 349.787 297 357C298.782 355.449 299.86 354.071 301 352C305.134 352.35 306.997 350.754 310 348C309.302 346.433 309.126 345.714 309 344C296.706 344.462 284.31 344 272 344L272 348C268.452 346.025 265.979 343.405 262 342L264 347C259.811 347.14 255.768 345.102 253 349C251.521 348.014 251.797 348 250 348C247.402 350.331 245.281 349.348 241.985 349.846C233.822 351.079 225.842 351.451 218 348.12C214.487 346.628 210.87 343.322 207.015 342.927C203.705 342.588 201.214 345.53 197.965 345.848C194.468 346.191 191.393 344.299 187.961 344.054C179.195 343.428 167.908 346.398 160 342z"/>
<path style="fill:#f3b5a3; stroke:none;" d="M152 344C155.761 349.339 160.661 354.239 166 358C163.294 352.198 157.802 346.706 152 344z"/>
<path style="fill:#f69079; stroke:none;" d="M236 350C237.506 350.683 238.315 350.826 240 351C238.494 350.317 237.685 350.174 236 350z"/>
<path style="fill:#ffb494; stroke:none;" d="M168 352C169.562 356.121 172.729 359.531 173 364C183.431 359.58 197.803 362 209 362L259 362C268.932 362 279.206 361.182 289 363L288 357L214 357L190 357C185.865 357 181.04 357.668 177 356.683C173.728 355.885 171.039 353.381 168 352z"/>
<path style="fill:#ffb393; stroke:none;" d="M176 353L176 357L251 357C263.506 357 277.803 358.904 290 356L290 360C296.814 361.905 300.14 358.476 304 353C302.521 352.014 302.797 352 301 352L297 357C294.379 351.797 291.127 352.963 286 353.041C279.673 353.137 273.329 353 267 353L176 353z"/>
<path style="fill:#ffb693; stroke:none;" d="M288 356L289 363C280.376 360.947 270.826 362 262 362L213 362C200.874 362 185.638 359.56 174 363C175.852 368.374 178.498 372.123 184 374C184 370.701 187.846 370.936 189 368C190.687 368.218 191.316 368.224 193 368C196.809 372.432 205.573 372 211 372L256 372C256.211 374.739 256.303 375.422 259 376C258.365 372.956 257.614 371.684 255 370L255 368C259.729 367.551 263.304 370.91 267.985 370.596C270.919 370.4 273.391 368.163 276 367C281.416 377.866 289.418 368.582 295 363C293.283 361.16 292.434 360.651 290 360L290 356L288 356z"/>
<path style="fill:#f2bba3; stroke:none;" d="M166 358C168.789 361.96 172.04 365.211 176 368C173.866 363.424 170.576 360.134 166 358z"/>
<path style="fill:#ffba93; stroke:none;" d="M255 368L255 370C257.075 371.953 258.065 373.316 259 376C256.965 374.774 256.674 374.297 256 372L214 372C207.136 372 198.684 372.378 193 368L189 368C187.132 369.769 185.308 370.837 183 372L183 375C190.292 377.942 197.143 382.972 205 383L204 377C206.46 377.663 208.61 379.148 211.09 379.701C216.356 380.877 222.621 380 228 380C237.932 380 248.206 380.818 258 379L258 383C260.585 380.793 262.766 379.099 266 378C265.35 376.7 265.853 377 264 377C267.35 376.01 270.514 376.002 274 376L273 378C277.483 377.855 280.249 376.359 284 374C280.944 371.814 278.259 370.069 276 367C272.819 367.879 270.083 370.467 266.655 370.281C262.213 370.039 259.651 366.96 255 368z"/>
<path style="fill:#eebd9d; stroke:none;" d="M186 376C189.08 379.361 192.656 381.616 197 383C195.222 378.559 190.347 377.337 186 376z"/>
<path style="fill:#febd95; stroke:none;" d="M264 376C264.65 377.3 264.147 377 266 377C262.785 378.615 260.681 379.782 259 383L258 379C243.991 380.77 227.06 381.826 213.015 379.856C209.811 379.407 207.208 377.496 204 377L205 383L197 383C212.394 393.22 237.913 392.149 255 386.961C261.725 384.919 267.285 380.821 274 379L274 376L264 376z"/>
<path style="fill:#fffaee; stroke:none;" d="M188 378C190.751 385.611 199.822 387.89 207.004 389.745C219.495 392.97 234.114 394.598 247 392.699C253.092 391.801 258.912 389.181 265 388C261.043 385.416 257.225 387.299 253 388.586C247.106 390.382 241.188 391.69 235 391.961C217.982 392.705 202.52 386.052 188 378z"/>
<path style="fill:#ecbd9f; stroke:none;" d="M219 390C223.215 391.769 228.465 391 233 391C247.861 390.999 263.651 387.589 276 379C268.955 377.738 260.74 384.914 254 386.961C242.69 390.395 230.676 390 219 390z"/>
<path style="fill:#f5d5c3; stroke:none;" d="M262.667 385.333C262.222 385.778 263.278 385.722 263.333 385.667C263.778 385.222 262.722 385.278 262.667 385.333z"/>
<path style="fill:#ffe0c6; stroke:none;" d="M206.667 387.333C206.222 387.778 207.278 387.722 207.333 387.667C207.778 387.222 206.722 387.278 206.667 387.333z"/>
<path style="fill:#ffe3ce; stroke:none;" d="M243 390C244.769 390.779 246.036 390.912 248 391C246.231 390.221 244.964 390.088 243 390z"/>
<path style="fill:#fddec3; stroke:none;" d="M224 391C228.724 392.982 234.91 392 240 392C235.276 390.018 229.09 391 224 391z"/>
</svg>
