<?xml version="1.0" standalone="no"?>
<!DOCTYPE svg PUBLIC "-//W3C//DTD SVG 20010904//EN"
 "http://www.w3.org/TR/2001/REC-SVG-20010904/DTD/svg10.dtd">
<svg version="1.0" xmlns="http://www.w3.org/2000/svg"
 width="1280.000000pt" height="1280.000000pt" viewBox="0 0 1280.000000 1280.000000"
 preserveAspectRatio="xMidYMid meet">
<metadata>
Created by potrace 1.15, written by Peter Selinger 2001-2017
</metadata>
<g transform="translate(0.000000,1280.000000) scale(0.100000,-0.100000)"
fill="#e91e63" stroke="none">
<path d="M4152 11230 c0 -14 2 -19 5 -12 2 6 2 18 0 25 -3 6 -5 1 -5 -13z"/>
<path d="M4152 11105 c-7 -55 -19 -134 -27 -175 -14 -67 -13 -91 2 -235 14
-141 15 -174 3 -270 -16 -133 -26 -123 -12 13 5 53 6 120 2 147 l-7 50 -2 -65
c-1 -36 -8 -108 -16 -160 -12 -74 -14 -144 -9 -315 4 -131 2 -278 -5 -362 -9
-114 -8 -171 3 -285 9 -86 11 -163 6 -193 -7 -49 -7 -49 -9 25 -1 41 -8 122
-16 180 -8 58 -15 157 -15 221 0 183 -12 449 -20 444 -13 -8 -21 208 -11 285
6 41 10 118 9 170 l-2 95 -8 -100 c-4 -55 -12 -264 -18 -465 -6 -201 -14 -408
-19 -460 -7 -83 -8 -67 -10 130 l-3 225 -15 -90 c-8 -49 -16 -164 -18 -255 -5
-274 -4 -270 -31 -130 -21 111 -23 142 -18 280 3 92 0 236 -8 355 -7 110 -12
241 -12 290 2 73 0 84 -8 60 -6 -16 -14 -199 -18 -405 -5 -206 -9 -404 -11
-440 l-2 -65 -7 60 c-4 33 -5 151 -2 262 3 139 1 220 -7 260 -7 32 -16 119
-20 193 l-8 135 -3 -100 -3 -100 -8 75 c-12 102 -16 115 -18 50 -1 -30 -7
-188 -13 -350 -6 -162 -10 -360 -9 -440 1 -110 -2 -139 -10 -120 -22 54 -41
171 -46 295 -8 171 -26 135 -27 -54 -1 -133 -7 -129 -21 16 -4 40 -11 70 -16
67 -5 -3 -9 2 -9 11 0 9 -5 13 -11 9 -8 -4 -9 -57 -4 -178 6 -148 4 -187 -14
-291 -11 -66 -22 -136 -24 -155 -2 -19 -5 6 -7 55 -2 82 -3 87 -13 53 -14 -52
-31 -49 -23 5 4 23 9 87 11 142 l5 100 -25 -110 c-32 -141 -36 -147 -31 -50 3
65 -8 213 -13 167 0 -8 -8 -28 -16 -45 -8 -18 -23 -66 -34 -107 -19 -75 -19
-75 -21 -30 -2 39 -3 42 -11 20 -5 -15 -6 2 -1 45 11 113 9 252 -5 267 -10 10
-13 -6 -13 -77 0 -50 -5 -109 -10 -132 -27 -114 -30 -182 -15 -295 16 -120 18
-247 5 -288 -5 -15 -7 16 -7 80 1 58 -7 160 -18 227 -18 120 -18 126 0 255 12
90 16 152 11 191 -4 32 -10 56 -13 53 -3 -3 -9 -33 -13 -68 -9 -73 -46 -208
-62 -223 -7 -7 -9 1 -4 25 17 100 18 257 2 339 -16 86 -25 110 -27 75 -1 -15
-3 -13 -9 6 -4 15 -6 -12 -4 -65 l3 -90 -9 70 c-16 111 -17 108 -15 -25 2 -88
1 -104 -4 -55 l-6 70 -7 -85 c-3 -47 -14 -123 -23 -170 -14 -73 -14 -102 -4
-203 6 -65 9 -120 7 -122 -2 -2 -14 55 -27 126 -23 130 -23 131 -6 262 15 119
15 138 2 197 l-15 65 -1 -67 c-1 -37 -10 -109 -21 -160 -11 -51 -24 -127 -28
-168 l-8 -75 -7 63 c-6 43 -3 98 9 175 16 110 14 197 -5 262 -7 23 -9 10 -10
-61 -1 -55 -11 -140 -26 -215 -17 -84 -24 -142 -21 -179 4 -34 2 -46 -2 -30
-7 20 -10 12 -15 -39 -4 -35 -7 -84 -7 -108 0 -50 -27 -233 -40 -278 -6 -20
-8 31 -5 145 4 130 1 192 -10 240 -14 64 -14 65 -9 13 2 -29 0 -81 -6 -115 -6
-35 -17 -99 -24 -143 l-13 -80 4 145 c3 118 0 162 -16 235 l-20 90 7 -70 c9
-101 5 -187 -12 -295 -9 -52 -16 -126 -16 -165 -1 -57 -3 -66 -12 -51 -8 14
-9 68 -3 185 9 191 7 274 -5 304 -6 16 -9 -2 -10 -58 0 -44 -7 -125 -15 -180
-10 -72 -13 -158 -10 -305 3 -121 1 -193 -4 -175 -5 17 -10 64 -11 105 -4 154
-17 120 -23 -65 -4 -104 -10 -240 -13 -302 -4 -62 -1 -161 5 -225 10 -95 9
-126 -4 -193 -8 -44 -15 -96 -15 -115 0 -19 -9 -81 -20 -138 -25 -126 -28
-474 -6 -612 15 -89 55 -252 80 -317 46 -122 88 -226 96 -241 5 -9 25 -51 45
-92 41 -84 114 -220 131 -241 6 -8 36 -57 68 -109 31 -52 81 -129 111 -170 30
-41 65 -89 77 -106 124 -172 301 -382 550 -651 239 -259 739 -716 1042 -953
32 -25 92 -72 134 -106 43 -33 107 -81 143 -107 94 -66 113 -65 223 21 48 37
102 78 120 92 18 14 80 65 137 113 99 84 104 87 113 65 4 -13 12 -32 16 -43 5
-11 25 -69 45 -130 20 -60 40 -119 45 -130 5 -11 19 -45 30 -75 11 -30 25 -64
30 -75 5 -11 18 -42 30 -70 73 -173 194 -434 255 -550 189 -361 268 -502 414
-735 39 -63 79 -128 89 -143 32 -53 217 -332 252 -380 77 -107 99 -127 141
-127 54 0 204 53 485 171 77 32 143 59 146 59 6 0 43 17 313 142 188 88 415
200 524 261 46 26 86 47 88 47 13 0 397 235 537 329 197 132 277 189 420 301
221 173 479 432 642 645 126 165 257 413 304 575 12 41 25 85 31 98 15 37 39
259 39 362 0 120 -25 317 -51 394 -13 42 -19 87 -19 155 0 53 -7 148 -16 211
-14 96 -15 129 -5 201 10 79 14 221 5 174 -3 -11 -12 -60 -21 -108 -8 -48 -18
-85 -21 -82 -3 3 1 50 8 106 12 88 11 120 -4 258 -13 123 -15 199 -10 342 4
101 3 247 -2 324 l-8 140 -8 -110 c-4 -60 -11 -130 -16 -155 l-9 -45 -3 35
c-6 78 -24 -259 -24 -455 1 -115 -1 -187 -2 -160 -2 28 -9 91 -15 140 -10 76
-20 556 -20 925 0 89 -1 100 -11 75 -8 -20 -11 -125 -10 -315 1 -157 -2 -319
-7 -360 -7 -64 -8 -48 -10 111 0 103 -8 251 -16 330 -9 85 -13 171 -9 209 4
37 3 61 -2 57 -9 -9 -28 -607 -28 -872 0 -193 -16 -124 -23 100 -3 94 -9 174
-13 178 -7 8 -37 -162 -42 -230 -2 -44 -21 626 -21 777 -1 102 -3 128 -10 105
-6 -17 -11 -107 -11 -202 0 -95 -2 -171 -3 -169 -2 2 -7 36 -12 77 l-8 74 -2
-57 c0 -32 -5 -58 -10 -58 -13 0 -26 180 -21 290 9 188 4 333 -12 380 l-16 45
5 -105 c4 -76 1 -130 -12 -195 -14 -76 -17 -163 -18 -569 -1 -272 -5 -458 -10
-430 -6 41 -9 821 -4 1139 1 50 -4 117 -11 150 -7 33 -17 98 -21 145 -7 69 -9
75 -10 32 0 -29 6 -108 15 -176 15 -116 15 -132 -2 -238 -12 -81 -17 -167 -16
-303 1 -104 -2 -206 -7 -225 -7 -28 -9 -18 -10 55 -1 50 -6 97 -11 105 -8 12
-10 8 -11 -15 -1 -16 -5 -91 -8 -165 l-8 -135 -3 180 c-2 99 -5 168 -7 153 -2
-16 -8 -28 -12 -28 -4 0 -9 -55 -10 -122 -2 -68 -6 -152 -11 -188 -6 -51 -8
-26 -10 120 -1 102 -5 199 -9 215 -6 27 -8 24 -14 -25 -4 -30 -8 -95 -8 -145
-2 -56 -6 -9 -13 125 -5 118 -10 283 -10 365 0 90 -3 140 -8 125 -5 -17 -6 -7
-4 30 2 30 1 78 -2 105 -5 44 -8 31 -28 -110 -19 -139 -22 -196 -19 -430 2
-232 2 -244 -4 -85 -6 180 -15 236 -31 209 -16 -25 -23 147 -11 266 21 216 11
238 -20 44 -16 -102 -18 -155 -14 -299 3 -96 2 -224 -2 -285 l-8 -110 -8 173
c-4 96 -12 183 -18 194 -6 10 -14 47 -19 81 l-9 62 3 -60 c2 -33 0 -100 -5
-150 -5 -49 -13 -155 -19 -235 -6 -80 -15 -176 -19 -215 -12 -100 -15 -47 -17
280 -1 149 -6 295 -11 325 l-10 55 -2 -81 c-2 -134 -14 -272 -21 -244 -4 15
-14 -39 -26 -139 -17 -146 -20 -159 -27 -120 -5 24 -5 99 -2 167 3 71 2 122
-3 122 -9 0 -20 -57 -24 -124 -1 -17 -5 66 -9 184 -4 118 -14 278 -22 355
l-14 140 -1 -270 c-1 -148 -6 -288 -11 -310 -8 -36 -9 -33 -9 35 1 131 -9 814
-12 845 -6 51 -18 -175 -30 -535 -15 -487 -24 -540 -28 -160 -2 173 -4 340 -4
370 -1 30 2 120 6 200 6 122 4 161 -12 250 -22 118 -28 88 -11 -57 10 -80 9
-117 -6 -231 -14 -103 -17 -173 -12 -291 3 -86 2 -192 -2 -236 -8 -76 -8 -77
-10 -25 -9 228 -13 285 -21 360 -9 82 -9 81 -5 -43 1 -70 0 -129 -4 -132 -5
-2 -11 -84 -15 -182 -11 -285 -22 -294 -23 -18 -1 138 -6 279 -12 315 -14 84
-14 227 0 343 7 61 8 112 2 152 -10 60 -10 59 -10 -40 -1 -55 -6 -127 -12
-160 -6 -33 -10 -166 -9 -300 0 -132 -5 -304 -12 -383 -9 -112 -9 -173 0 -279
6 -74 9 -137 7 -139 -3 -3 -8 28 -12 68 -5 46 -10 66 -15 54 -15 -42 -30 174
-25 365 3 119 1 184 -4 169 -6 -18 -10 9 -11 90 -1 63 -6 147 -10 185 l-7 70
-3 -55 c-3 -45 -5 -37 -11 45 -5 82 -6 72 -4 -54 4 -160 -10 -557 -21 -650 -4
-30 -3 -51 2 -48 5 3 10 -62 11 -147 1 -92 -2 -139 -7 -121 -4 17 -8 59 -9 95
-1 36 -9 99 -18 140 -10 45 -19 154 -22 275 -4 110 -8 185 -9 168 -3 -54 -22
-37 -23 20 -1 134 -32 -79 -42 -293 -2 -36 -5 -4 -6 70 -3 109 -5 125 -11 85
-5 -27 -9 -85 -9 -127 -1 -42 -5 -79 -10 -82 -13 -8 -24 100 -21 212 2 53 2
115 0 137 -7 99 -23 -113 -24 -325 -1 -157 -5 -231 -13 -245 -11 -18 -12 -16
-13 20 0 22 -9 103 -20 180 -13 93 -20 193 -20 303 0 92 -4 161 -9 158 -11 -7
-27 -241 -24 -356 l2 -85 -12 50 c-19 75 -31 40 -28 -80 3 -107 -6 -178 -19
-170 -5 3 -8 42 -8 88 1 102 -11 201 -22 172 -5 -14 -10 -1 -17 45 -9 63 -10
61 -10 -55 0 -111 -21 -263 -43 -318 -7 -19 -9 -16 -9 17 -1 52 -9 42 -20 -25
-8 -51 -9 -52 -10 -14 -1 22 6 89 15 148 16 100 16 117 0 231 -9 68 -17 168
-17 222 -1 55 -3 91 -6 82 -2 -10 -9 -18 -14 -18 -11 0 -11 -166 0 -270 9 -78
-12 -220 -44 -314 -8 -23 -15 -56 -15 -74 0 -22 -4 -31 -11 -26 -8 5 -9 -8 -5
-42 6 -55 9 -121 6 -174 -1 -28 -6 -18 -20 45 -36 152 -42 244 -25 357 8 56
14 120 14 142 -1 35 -3 33 -10 -19 -4 -33 -12 -78 -18 -100 -10 -39 -10 -39
-6 15 l4 55 -14 -60 c-8 -33 -15 -94 -16 -135 l-3 -75 -4 60 c-2 33 4 112 14
176 14 93 15 132 7 190 l-10 74 -2 -102 c0 -56 -8 -135 -17 -175 -10 -48 -16
-130 -17 -238 -1 -91 -3 -154 -5 -140 -1 14 -10 66 -18 115 -17 99 -19 231 -6
313 12 69 -3 67 -19 -3 -18 -83 -23 -58 -10 50 11 80 10 112 -4 207 -9 62 -20
151 -24 198 -7 66 -8 33 -7 -145 1 -209 -1 -234 -18 -270 -24 -48 -33 -201
-18 -285 5 -30 7 -93 4 -140 l-6 -85 -12 100 c-6 55 -18 143 -25 196 -11 86
-11 110 6 219 17 111 18 133 5 234 -7 61 -16 179 -20 261 -3 83 -8 128 -9 100
-8 -166 -16 -102 -16 132 0 192 -3 275 -12 283 -8 9 -11 -23 -12 -131 -1 -176
-12 -378 -20 -383 -3 -2 -7 107 -8 242 -2 259 -18 597 -22 467 -2 -47 -5 -63
-10 -50 -5 11 -9 -88 -10 -220 -1 -132 -6 -267 -13 -300 -13 -71 -15 -189 -7
-335 3 -58 4 -80 0 -50 l-5 55 -6 -70 -6 -70 -2 75 c-1 41 -7 104 -13 140 -11
59 -20 524 -20 970 0 181 -2 180 -27 -15 -5 -38 -7 -180 -5 -315 3 -160 -1
-292 -9 -380 l-14 -135 -7 280 c-4 154 -12 333 -17 398 -6 75 -6 150 0 210 11
106 13 193 4 184 -4 -3 -13 -48 -22 -99 -10 -67 -15 -180 -16 -403 -1 -214 -5
-318 -13 -335 -10 -22 -12 -15 -12 51 -1 111 -21 421 -30 471 -5 28 -9 -51
-12 -222 -3 -159 -9 -272 -15 -284 -9 -15 -12 -6 -17 44 -4 35 -7 84 -7 109 0
26 -4 51 -9 57 -8 9 -35 337 -35 424 1 25 4 106 8 180 5 88 4 149 -3 175 -10
39 -11 38 -7 -20 2 -33 0 -71 -4 -85 -6 -19 -9 -11 -10 35 -2 61 -17 137 -19
101 -2 -37 -12 -7 -29 85 -11 63 -16 129 -13 199 2 58 4 159 3 225 0 131 -18
535 -20 470 -1 -23 -9 -66 -17 -98 -12 -45 -13 -93 -9 -224 6 -137 4 -183 -10
-250 -20 -96 -24 -175 -14 -288 l6 -80 -14 70 c-18 91 -20 211 -4 305 11 73
10 161 -2 130 -13 -32 -48 -247 -48 -294 0 -27 -3 -46 -7 -42 -4 3 -8 102 -9
219 -2 131 -9 251 -18 314 -11 70 -16 180 -17 340 -1 131 -4 267 -8 303 l-7
65 -7 -110 c-4 -60 -12 -182 -19 -270 -8 -124 -8 -193 2 -310 12 -151 11 -168
-21 -345 -4 -25 -8 -85 -9 -135 -1 -72 -4 -84 -11 -60 -18 57 -22 194 -9 299
11 91 11 122 -5 248 -9 79 -21 163 -25 188 -8 44 -8 44 -9 -20 0 -36 4 -109 8
-163 9 -99 6 -134 -23 -302 -9 -49 -17 -117 -18 -150 -2 -97 -16 -26 -17 90
-2 97 -2 99 -16 66 -18 -41 -19 -102 -1 -254 10 -84 12 -137 5 -185 -5 -36
-11 -67 -13 -69 -2 -2 -3 47 -3 109 1 64 -6 165 -17 234 -17 114 -17 128 -2
223 9 56 16 137 16 180 0 80 -26 290 -37 300 -3 3 -3 -55 0 -129 5 -134 5
-135 -8 -67 -8 38 -18 74 -23 80 -6 7 -15 46 -21 87 -7 41 -14 76 -17 79 -15
16 -25 -33 -21 -109 l5 -85 -14 60 -13 60 4 -85 c4 -82 4 -83 -9 -45 l-14 40
-5 -75 c-2 -41 -15 -118 -27 -170 -22 -95 -23 -158 -5 -345 3 -27 -4 -3 -15
55 -21 108 -22 123 -4 423 4 67 3 102 -5 110 -8 8 -11 -9 -11 -65 0 -42 -7
-110 -15 -150 -9 -40 -17 -112 -18 -160 -2 -90 -10 -89 -22 3 -4 33 -1 86 8
139 12 66 13 113 6 209 -10 146 -21 177 -14 40 2 -52 2 -85 -1 -74 -10 35 -24
41 -24 9 0 -16 -9 -54 -19 -84 -11 -30 -24 -88 -29 -128 -6 -41 -13 -76 -15
-78 -11 -11 -18 108 -11 189 5 66 4 88 -5 83 -8 -5 -11 19 -11 86 0 51 -5 125
-11 163 -6 39 -10 135 -10 214 1 107 -2 142 -10 134 -12 -12 -17 -261 -10
-463 4 -108 -16 -242 -30 -204 -4 13 -10 1 -19 -41 -8 -41 -11 -105 -7 -200
l6 -140 -19 115 c-23 140 -25 228 -5 340 17 95 20 194 6 186 -5 -3 -12 -34
-16 -68 -4 -35 -13 -94 -21 -133 -9 -41 -15 -135 -16 -225 l-1 -155 -18 100
c-22 127 -23 227 -3 355 15 94 15 112 -1 248 -13 109 -16 182 -11 287 4 78 3
146 -2 154 -6 9 -11 -8 -15 -50 -16 -171 -18 -242 -8 -329 17 -139 16 -234 -4
-360 -18 -107 -18 -118 -1 -257 10 -80 15 -147 12 -151 -3 -3 -7 10 -7 29 -2
29 -3 30 -7 9 -4 -18 -9 -6 -18 45 l-12 70 5 -79 c4 -56 2 -77 -5 -72 -7 4
-13 -3 -16 -16 -32 -148 -46 -224 -46 -258 0 -23 -5 -40 -11 -40 -12 0 -11 18
7 305 4 71 2 129 -10 201 -20 127 -20 208 0 332 18 110 14 157 -23 342 -21
103 -27 166 -32 360 -5 193 -8 221 -14 155 -4 -44 -12 -141 -19 -215 -7 -74
-12 -178 -11 -230 0 -62 -2 -85 -7 -65 -5 17 -6 -13 -3 -65 4 -71 0 -126 -16
-217 -26 -147 -26 -181 -5 -353 15 -120 16 -145 3 -225 l-14 -90 -6 160 c-3
88 -11 191 -18 229 -13 66 -11 169 5 334 10 99 -10 72 -30 -41 -21 -120 -23
-162 -14 -272 l6 -80 -14 75 c-16 82 -14 214 6 339 9 61 9 97 -4 198 -9 67
-16 149 -17 180 0 32 -5 67 -10 78 -6 13 -8 -58 -5 -200 2 -121 2 -204 0 -185
-8 80 -38 219 -45 208 -4 -6 -10 15 -14 48 -11 106 -13 92 -7 -65 4 -116 2
-152 -6 -147 -7 4 -12 17 -12 28 0 41 -12 8 -26 -69 -33 -185 -35 -212 -26
-300 11 -109 5 -183 -14 -183 -9 0 -14 12 -14 35 0 20 -9 61 -20 93 -17 48
-44 220 -39 248 1 5 1 23 0 39 l-2 30 -11 -25 c-9 -24 -7 -108 8 -353 4 -64 2
-126 -7 -175 -7 -43 -13 -153 -14 -247 -1 -93 -7 -188 -12 -210 l-11 -40 -1
60 c-3 137 -14 259 -23 240 -5 -11 -5 41 -1 120 4 77 7 183 7 235 1 101 -20
233 -35 224 -5 -3 -6 -58 -3 -122 5 -86 2 -141 -10 -207 -9 -50 -16 -144 -16
-213 0 -71 -4 -121 -9 -118 -17 11 -24 215 -11 338 8 75 9 144 4 186 l-8 67
-7 -108 c-8 -144 -26 -160 -26 -25 0 73 -7 139 -26 228 -14 69 -28 136 -31
150 -6 29 1 -115 10 -241 5 -59 2 -114 -9 -180 -9 -52 -19 -162 -22 -245 -3
-83 -9 -164 -14 -180 -7 -25 -9 -20 -15 36 -12 110 -17 140 -27 140 -5 0 -10
-44 -10 -97 -2 -93 -2 -89 -15 72 -11 144 -11 190 1 302 8 73 13 145 10 160
-2 15 -9 65 -16 110 -6 46 -15 81 -19 78 -14 -9 -33 127 -28 202 2 39 0 69 -4
67 -16 -10 -30 -123 -24 -201 3 -46 9 -121 12 -167 5 -63 2 -105 -12 -172 -16
-74 -18 -124 -16 -304 2 -195 -12 -470 -27 -527 -9 -33 -18 625 -12 912 1 61
-2 126 -7 145 -8 29 -10 20 -12 -60 0 -52 -6 -117 -11 -145 -6 -27 -14 -147
-19 -265 -9 -192 -24 -420 -31 -460 -2 -8 -6 37 -10 100 -10 173 -21 263 -29
249 -11 -16 -23 140 -23 284 0 64 -2 115 -4 113 -2 -2 -8 -55 -13 -117 l-9
-114 4 140 c3 77 7 172 9 210 4 65 4 66 -3 15 -5 -30 -12 -91 -16 -135 -6 -53
-11 -73 -16 -60 -4 12 -8 -32 -10 -100 l-2 -120 -9 100 c-7 68 -6 129 1 192
12 97 15 200 6 191 -3 -3 -12 -50 -21 -104 -11 -72 -15 -180 -15 -394 0 -162
-4 -324 -8 -360 -6 -50 -9 -18 -10 137 0 111 -6 237 -12 280 -7 43 -12 133
-13 200 -1 67 -3 119 -6 117 -2 -3 -8 -87 -13 -187 -16 -351 -18 -382 -27
-392 -4 -5 -11 -57 -14 -115 -4 -58 -10 -130 -13 -160 l-7 -55 -7 45 c-4 25
-8 113 -9 195 -1 83 -5 179 -9 215 -5 56 -7 45 -14 -90 -11 -242 -24 -241 -19
1 3 119 2 233 -2 253 -12 64 -26 38 -27 -51 l-2 -88 -7 70 c-4 39 -13 144 -20
235 -7 91 -16 172 -21 180 -11 20 -12 -13 -11 -335 1 -143 -2 -249 -7 -235 -6
19 -10 3 -17 -65 l-9 -90 -5 85 -5 85 -12 -65 -12 -65 5 75 c3 41 -2 147 -10
235 -8 88 -17 210 -21 270 -3 61 -9 133 -12 160 -6 46 -7 48 -14 20 -3 -16 -7
-111 -8 -210 -1 -99 -6 -187 -11 -195 -7 -10 -10 15 -10 80 -1 78 -3 90 -12
70 -14 -33 -14 -33 -18 -120 l-3 -75 -8 80 c-5 44 -14 141 -21 215 l-13 135
-6 -140 c-9 -185 -8 -177 -18 -171 -4 3 -12 -54 -16 -127 -4 -73 -11 -175 -15
-227 -8 -104 -9 -98 -18 100 -8 191 -14 256 -23 265 -5 5 -10 -12 -11 -45 -1
-48 -2 -45 -8 25 -6 79 -6 79 -8 -37 -1 -71 -6 -118 -12 -118 -5 0 -10 -19
-11 -42 0 -24 -3 -51 -7 -60 -4 -10 -7 60 -8 155 -1 334 -9 717 -15 717 -3 0
-12 -42 -18 -92 -7 -51 -15 -109 -19 -128 -6 -31 -7 -29 -10 23 -5 88 -22 58
-23 -41 l-2 -87 -8 70 c-4 39 -3 116 2 175 11 107 9 247 -2 220 -12 -28 -43
-284 -44 -357 0 -39 -4 -75 -8 -79 -4 -4 -8 -50 -9 -103 -1 -94 -2 -95 -8 -31
-4 36 -8 54 -9 40 -3 -20 -5 -18 -13 15 -5 22 -11 164 -13 315 -2 151 -8 289
-14 305 -8 26 -9 23 -5 -20 3 -27 -4 -119 -15 -204 -12 -85 -22 -170 -22 -190
-1 -21 -3 -28 -6 -16 -3 11 -9 24 -14 30 -5 5 -9 43 -9 84 0 41 -2 72 -4 70
-3 -3 -11 -94 -18 -204 -11 -176 -14 -192 -20 -135 -4 36 -12 101 -17 145 -5
44 -11 109 -12 145 l-3 65 -6 -75 -6 -75 -4 85 c-3 78 -4 72 -12 -65 -4 -82
-12 -181 -17 -220 l-8 -70 -2 79 c0 44 -6 132 -12 195 -9 89 -9 149 1 256 11
130 10 151 -10 299 -22 157 -23 162 -5 275 9 64 15 145 13 181 l-3 65 -13
-100z m-395 -867 c-3 -7 -5 -2 -5 12 0 14 2 19 5 13 2 -7 2 -19 0 -25z m2360
-185 c-3 -10 -5 -4 -5 12 0 17 2 24 5 18 2 -7 2 -21 0 -30z m-2960 -395 c-3
-8 -6 -5 -6 6 -1 11 2 17 5 13 3 -3 4 -12 1 -19z m680 -105 c-3 -10 -5 -2 -5
17 0 19 2 27 5 18 2 -10 2 -26 0 -35z m2410 -5 c-3 -8 -6 -5 -6 6 -1 11 2 17
5 13 3 -3 4 -12 1 -19z m-910 -130 c-2 -18 -4 -4 -4 32 0 36 2 50 4 33 2 -18
2 -48 0 -65z m2180 -595 c-2 -21 -4 -6 -4 32 0 39 2 55 4 38 2 -18 2 -50 0
-70z m-3349 -283 c66 -9 225 -51 262 -71 8 -4 53 -26 100 -50 191 -94 372
-247 563 -472 43 -51 52 -57 87 -57 37 0 47 8 157 118 202 201 421 352 638
440 269 110 494 129 715 61 125 -38 295 -133 385 -213 22 -20 43 -36 46 -36 3
0 9 -112 12 -249 6 -231 5 -256 -15 -342 -14 -64 -21 -129 -21 -204 0 -97 -1
-104 -10 -62 -5 26 -12 47 -17 47 -4 0 -6 -69 -4 -152 3 -142 2 -147 -7 -68
-11 99 -30 177 -57 240 l-20 45 0 -190 c0 -139 -4 -208 -16 -255 -15 -64 -15
-64 -11 -15 18 193 17 253 -5 395 -14 98 -19 168 -16 215 5 58 4 66 -6 45 -13
-29 -15 -193 -4 -370 5 -95 4 -148 -8 -220 l-15 -95 5 135 c5 107 2 162 -14
265 -12 72 -23 146 -25 165 -3 19 -1 96 5 170 8 119 2 277 -10 226 -3 -15 -6
-16 -13 -5 -5 9 -9 -12 -9 -56 0 -47 -3 -65 -10 -55 -5 8 -11 12 -13 10 -5 -7
-34 -155 -43 -220 -6 -47 -9 -51 -15 -30 -5 14 -5 -22 -1 -80 9 -132 5 -239
-11 -310 -12 -54 -12 -53 -13 65 0 77 -8 170 -23 260 -21 125 -23 149 -12 232
13 112 14 130 2 118 -15 -17 -41 -151 -42 -222 -1 -64 -2 -65 -10 -28 -5 22
-6 83 -4 135 4 78 3 90 -7 70 -14 -30 -16 -213 -4 -366 6 -80 5 -135 -4 -195
-16 -107 -33 -139 -23 -44 11 110 6 231 -17 349 -11 61 -20 135 -20 165 0 72
-16 100 -25 45 -4 -21 -11 -49 -17 -60 -7 -15 -7 -47 1 -105 15 -112 14 -211
-4 -294 -8 -39 -18 -106 -22 -150 -5 -62 -9 -73 -14 -50 -4 17 -8 53 -9 80 -4
101 -18 3 -20 -145 -2 -114 -4 -138 -12 -110 -5 19 -10 152 -10 294 0 142 -4
253 -8 245 -4 -8 -13 -68 -19 -134 -18 -174 -21 -170 -14 21 4 123 1 187 -8
230 l-13 59 -7 -125 c-4 -69 -12 -147 -19 -175 -6 -27 -17 -144 -24 -260 l-12
-210 -8 235 c-6 166 -5 260 4 320 6 47 9 110 5 140 -10 92 -27 170 -38 177 -6
4 -8 -3 -4 -18 3 -13 9 -63 12 -111 7 -79 1 -149 -29 -353 -5 -33 1 96 11 221
4 57 0 111 -13 185 -17 97 -19 101 -30 74 -11 -28 -12 -28 -27 36 -15 61 -16
61 -10 14 10 -86 4 -248 -12 -356 -12 -76 -15 -144 -11 -249 l6 -145 -15 75
c-8 41 -18 94 -21 118 -4 23 -9 41 -11 39 -2 -2 -8 -76 -13 -163 -15 -243 -23
-315 -31 -279 -4 17 -7 80 -8 141 0 61 -4 133 -8 160 l-8 49 -7 -55 c-8 -52
-24 -304 -28 -435 -2 -49 -4 -55 -10 -30 -4 17 -9 152 -10 300 -2 149 -6 245
-9 215 -6 -50 -7 -45 -14 54 -4 60 -7 147 -7 194 0 47 -2 83 -5 80 -3 -3 -6
-93 -7 -199 -1 -202 -13 -425 -27 -519 -5 -34 -6 25 -3 155 5 214 -12 535 -29
535 -5 0 -10 -91 -11 -202 -1 -152 -3 -179 -7 -108 -7 115 -20 89 -22 -45 l-2
-90 -7 85 c-4 47 -12 95 -18 105 -9 16 -12 -3 -13 -90 -1 -138 -25 -433 -29
-355 -1 30 -4 104 -5 164 -2 59 -6 110 -8 112 -2 3 -10 -44 -18 -103 l-14
-108 -6 225 c-9 298 -26 374 -29 130 -2 -96 -6 -209 -10 -250 -7 -74 -7 -74
-9 40 -1 63 -7 147 -14 185 l-13 70 -9 -160 c-10 -172 -10 -229 -5 -430 3 -95
-1 -153 -13 -216 -13 -61 -17 -123 -15 -220 3 -133 -12 -223 -33 -202 -5 5
-16 47 -24 93 -17 93 -18 94 -31 128 -7 16 -9 -16 -7 -100 3 -83 -1 -147 -11
-198 l-15 -75 4 80 c2 44 -2 114 -9 155 -10 56 -14 66 -16 40 -1 -21 -11 15
-26 95 -13 72 -21 108 -19 80 16 -167 17 -239 5 -291 -12 -48 -16 -54 -26 -40
-11 15 -12 15 -19 -1 -4 -10 -11 -90 -15 -178 -4 -88 -7 -143 -8 -122 -1 21
-6 36 -11 33 -9 -6 -20 35 -22 83 -1 22 -3 21 -9 -9 -7 -33 -8 -32 -11 20 -1
31 -6 -9 -11 -95 -4 -82 -12 -204 -16 -270 l-8 -120 -2 195 c-1 113 -6 189
-11 181 -10 -15 -17 37 -27 199 -5 67 -10 98 -15 85 -4 -11 -8 -14 -8 -7 -1 7
-5 10 -11 7 -5 -3 -11 -34 -12 -68 l-1 -62 -7 65 c-5 46 -8 9 -10 -130 -2
-107 -5 -170 -6 -140 -2 30 -9 114 -16 185 -16 170 -24 120 -27 -170 -1 -115
-6 -259 -10 -320 -7 -90 -8 -57 -9 183 -2 230 -5 293 -14 289 -14 -4 -14 1
-18 -192 l-3 -140 -7 175 c-5 96 -13 188 -19 203 -6 16 -12 40 -12 55 -5 92
-41 -443 -41 -595 0 -43 -17 -62 -19 -20 0 12 -5 31 -10 42 -6 13 -7 -5 -4
-57 3 -43 4 -78 1 -78 -2 0 -10 26 -17 58 -8 38 -12 135 -10 297 1 140 -2 265
-9 300 -6 33 -14 87 -18 120 -5 36 -6 -11 -4 -121 3 -119 0 -221 -9 -295 -8
-63 -13 -168 -13 -234 l2 -120 -14 85 c-11 63 -13 132 -8 265 4 123 3 177 -4
170 -14 -14 -32 -237 -32 -397 0 -72 -2 -129 -5 -126 -3 2 -12 45 -20 94 -11
62 -18 188 -22 419 -8 518 -8 536 -1 609 9 88 -6 75 -22 -19 -8 -46 -12 -174
-12 -375 1 -168 -2 -325 -7 -350 -4 -29 -9 46 -12 212 -4 186 -9 261 -18 272
-8 10 -13 51 -14 118 0 85 -2 94 -8 53 -4 -27 -8 -77 -9 -110 -2 -66 -5 -64
-16 10 l-8 50 -7 -60 c-4 -33 -6 28 -4 135 l3 195 -19 -75 c-10 -41 -22 -115
-27 -165 l-9 -90 -3 65 c-2 36 -3 97 -2 135 1 61 0 66 -9 40 -7 -18 -15 -175
-20 -380 -8 -298 -19 -484 -28 -465 -5 9 -25 732 -24 855 l0 120 -14 -65 c-7
-36 -17 -130 -22 -210 -4 -80 -9 -127 -10 -105 -1 22 -8 68 -16 103 -8 34 -18
95 -22 135 l-7 72 -7 -55 c-3 -30 -4 -94 -1 -142 3 -55 1 -88 -5 -88 -19 0
-36 134 -30 231 19 294 19 288 -7 444 -20 116 -24 132 -19 70 9 -117 4 -273
-12 -367 -11 -58 -15 -166 -16 -363 0 -163 -6 -316 -13 -365 -12 -83 -12 -80
-19 190 -8 320 -16 489 -24 510 -9 23 -20 -35 -23 -120 -2 -69 -3 -72 -12 -40
-6 20 -8 77 -4 135 8 121 15 318 10 255 -3 -25 -11 -90 -20 -145 -10 -64 -15
-150 -13 -240 2 -162 -2 -447 -7 -425 -1 8 -6 69 -10 135 -8 146 -22 129 -24
-30 -4 -233 -15 -225 -23 15 -4 130 -12 262 -17 295 -5 33 -10 114 -11 180 -1
112 -13 125 -19 20 -2 -39 -3 -39 -10 -10 -6 23 -8 14 -9 -40 -1 -38 -8 -122
-14 -185 l-12 -115 -13 190 c-9 134 -10 212 -3 265 12 88 12 234 1 270 -9 29
-12 14 -10 -50 1 -25 -6 -92 -14 -149 -9 -58 -16 -125 -17 -150 -1 -36 -2 -41
-8 -21 -4 14 -3 76 2 139 7 81 6 134 -2 180 -47 272 -49 295 -38 431 l6 85
-15 -45 c-21 -63 -30 -162 -23 -245 10 -110 18 -283 12 -250 -12 59 -32 -123
-48 -421 -22 -424 -32 -492 -34 -233 -1 150 -5 216 -15 240 -13 34 -30 117
-42 214 -5 39 -8 45 -15 30 l-8 -20 0 20 c-1 11 4 76 10 145 11 115 10 136
-10 255 -25 146 -27 233 -11 359 15 106 8 123 -9 26 -7 -39 -16 -68 -21 -65
-9 6 -20 -55 -20 -119 0 -26 7 -104 17 -173 15 -116 15 -132 -1 -246 -9 -70
-17 -196 -18 -297 0 -96 -3 -161 -5 -145 -2 17 -11 84 -20 150 -12 94 -14 147
-7 245 10 153 8 264 -5 288 -8 13 -10 -1 -11 -53 0 -38 -5 -99 -11 -135 -6
-36 -15 -114 -19 -175 l-7 -110 -3 115 -3 115 -9 -70 c-5 -38 -9 -149 -9 -245
-1 -168 -1 -172 -10 -85 -9 79 -11 298 -7 565 1 73 -27 258 -38 248 -1 -2 2
-50 8 -106 8 -75 8 -108 0 -125 -20 -40 -36 -170 -36 -300 -1 -70 -4 -118 -7
-105 -5 20 -7 18 -10 -12 -3 -19 -8 26 -13 100 -5 87 -4 170 3 232 11 96 13
201 4 148 -3 -14 -9 -29 -13 -35 -4 -5 -13 -53 -20 -105 -15 -115 -33 -166
-25 -70 15 185 17 278 7 295 -8 15 -11 2 -17 -61 -11 -116 -25 -178 -18 -79 4
60 -1 109 -18 195 -12 63 -26 156 -30 205 -7 89 -7 89 -3 -20 2 -60 7 -143 10
-184 5 -50 1 -114 -10 -195 -32 -220 -33 -219 -33 14 1 152 -3 235 -11 255
-11 26 -11 22 -7 -36 3 -43 -2 -111 -15 -190 -11 -68 -21 -142 -21 -164 -1
-36 -2 -33 -11 20 -6 36 -6 96 -1 155 5 52 6 122 3 155 l-7 60 -2 -80 c-1 -44
-6 -100 -11 -125 -7 -36 -8 -29 -4 35 2 44 1 103 -4 130 l-9 50 -6 -35 c-4
-19 -14 -89 -23 -155 -9 -66 -18 -122 -21 -125 -3 -3 -3 25 -1 62 1 36 0 64
-4 61 -5 -2 -8 8 -9 24 -1 21 -3 16 -10 -16 -15 -76 -16 -70 -13 69 2 121 2
126 -5 48 -4 -48 -13 -93 -19 -100 -5 -7 -12 -24 -15 -38 -2 -14 -5 11 -6 55
-3 86 -18 150 -21 85 -5 -91 -16 -73 -17 25 0 66 -7 136 -16 175 -21 82 -21
195 -2 271 16 61 87 223 120 274 25 39 124 161 166 206 77 80 150 131 258 179
218 98 391 127 599 100z m3092 -480 c22 -43 40 -85 40 -94 0 -9 4 -16 9 -16 5
0 19 -33 31 -72 11 -40 26 -91 33 -113 17 -56 17 -389 0 -406 -7 -7 -13 -24
-13 -37 0 -17 -4 -23 -15 -18 -10 3 -15 -1 -16 -12 0 -12 -3 -9 -10 8 -13 32
-15 124 -6 265 7 108 2 110 -22 10 l-9 -40 -1 45 c-2 44 -2 44 -15 20 -36 -66
-42 -165 -21 -395 l5 -60 -25 89 c-14 50 -28 92 -30 95 -3 2 -5 -13 -6 -35 -1
-39 -1 -38 -15 16 -25 102 -27 181 -9 296 18 116 16 244 -5 299 -17 43 -27
250 -11 241 7 -5 11 1 11 17 0 60 32 27 100 -103z m1767 -472 c-2 -18 -4 -6
-4 27 0 33 2 48 4 33 2 -15 2 -42 0 -60z m-2360 0 c-3 -8 -6 -5 -6 6 -1 11 2
17 5 13 3 -3 4 -12 1 -19z m1370 -40 c-3 -7 -5 -2 -5 12 0 14 2 19 5 13 2 -7
2 -19 0 -25z m-5030 -120 c6 -107 -4 -161 -18 -93 -4 22 -8 85 -8 140 0 129
19 96 26 -47z m4270 80 c-3 -8 -6 -5 -6 6 -1 11 2 17 5 13 3 -3 4 -12 1 -19z
m-880 -325 c-3 -10 -5 -4 -5 12 0 17 2 24 5 18 2 -7 2 -21 0 -30z m-3180 -135
c-2 -13 -4 -5 -4 17 -1 22 1 32 4 23 2 -10 2 -28 0 -40z m5110 -155 c-2 -16
-4 -3 -4 27 0 30 2 43 4 28 2 -16 2 -40 0 -55z m1400 -65 c-3 -7 -5 -2 -5 12
0 14 2 19 5 13 2 -7 2 -19 0 -25z m-3920 -90 c-3 -7 -5 -2 -5 12 0 14 2 19 5
13 2 -7 2 -19 0 -25z m1320 -101 c3 -3 -12 -37 -33 -75 -28 -51 -42 -68 -55
-65 -13 4 -18 -4 -24 -39 -9 -53 -20 -75 -54 -104 l-26 -22 -7 36 c-4 20 -7
64 -8 97 l-1 60 -19 -60 c-11 -33 -20 -78 -20 -100 -1 -22 -5 -58 -9 -80 -8
-39 -8 -39 -19 -15 -6 14 -11 18 -12 10 0 -12 -2 -13 -9 -1 -5 8 -10 -12 -13
-55 -2 -40 -9 -69 -16 -72 -7 -2 -12 -13 -13 -25 0 -12 -6 -2 -14 23 -28 97
-36 120 -41 120 -2 0 -1 -32 2 -70 6 -62 5 -72 -12 -85 -18 -13 -19 -11 -25
28 l-6 42 -2 -45 c-3 -44 -3 -45 -13 -15 -5 17 -13 46 -18 65 l-8 35 -2 -40
c-3 -78 -17 -84 -24 -10 -8 85 -26 122 -26 55 0 -25 -9 -103 -20 -175 -12 -71
-23 -144 -26 -162 -2 -17 -11 -34 -19 -37 -11 -4 -15 -21 -15 -61 0 -30 -4
-55 -9 -55 -11 0 -41 107 -56 205 l-13 80 -1 -185 c-1 -138 -5 -190 -15 -203
-12 -16 -14 -13 -21 28 -3 25 -12 63 -20 83 l-14 37 -1 -30 -2 -30 -12 35 -13
34 -12 -79 c-16 -100 -29 -136 -30 -83 -1 41 -15 58 -26 30 -3 -9 -13 -53 -21
-97 -13 -75 -35 -118 -51 -101 -10 9 -9 103 2 257 6 91 4 139 -10 232 -19 129
-17 197 10 322 19 87 14 81 144 176 149 109 317 179 461 192 53 5 311 0 317
-6z m463 -213 c125 -96 229 -211 333 -369 84 -128 122 -206 199 -408 24 -62
79 -73 149 -29 58 37 254 132 271 132 8 0 18 4 23 9 11 9 166 63 235 81 217
58 468 76 618 46 106 -22 191 -49 264 -86 68 -35 173 -104 184 -121 3 -6 7
-230 9 -497 1 -268 6 -530 10 -583 6 -76 4 -118 -10 -195 -13 -75 -16 -127
-12 -214 6 -128 -5 -122 -24 13 -10 69 -10 103 4 207 16 128 15 151 -16 280
-8 30 -17 54 -22 52 -5 -2 -12 5 -16 15 -4 10 -8 -25 -8 -78 -1 -59 -9 -135
-22 -195 -15 -66 -22 -134 -22 -204 0 -87 -2 -98 -9 -65 -5 22 -7 96 -3 165
11 233 6 299 -41 530 -12 60 -13 51 -8 -125 5 -150 2 -208 -10 -274 -9 -46
-16 -127 -17 -180 -1 -87 -2 -92 -11 -51 -5 25 -6 88 -3 140 14 235 16 318 7
355 -9 35 -10 28 -11 -56 -1 -55 -10 -141 -22 -200 -18 -84 -21 -126 -16 -219
3 -82 2 -102 -4 -70 -24 119 -27 196 -14 285 16 103 18 145 7 145 -4 0 -16
-47 -26 -105 -14 -79 -17 -127 -12 -202 3 -54 8 -143 11 -198 4 -92 3 -95 -6
-40 -38 226 -49 305 -50 345 -1 25 -3 37 -6 28 -2 -10 -9 -18 -15 -18 -7 0 -8
22 -4 63 3 34 8 112 10 172 l5 110 -10 -100 c-5 -55 -16 -127 -24 -160 l-15
-60 6 55 c3 30 2 51 -2 47 -4 -4 -11 -49 -15 -99 l-7 -93 4 105 c12 271 13
354 5 330 -9 -24 -9 -23 -11 10 -5 92 -16 72 -16 -30 0 -84 -5 -132 -19 -180
-14 -49 -19 -97 -19 -195 l0 -130 -19 100 c-11 55 -24 103 -29 106 -7 5 -5 52
6 146 17 145 16 161 -18 358 l-14 80 5 -161 c5 -132 3 -179 -12 -254 -15 -76
-16 -113 -10 -213 11 -154 10 -315 0 -487 l-8 -135 -13 55 c-9 39 -11 99 -7
205 4 118 2 171 -12 245 -33 187 -36 226 -20 338 8 58 15 131 14 161 -1 66 -5
59 -14 -24 -5 -40 -10 -54 -14 -41 -5 14 -14 -3 -32 -60 -22 -74 -24 -92 -21
-266 1 -123 -3 -221 -12 -285 -16 -107 -32 -273 -44 -453 -7 -108 -8 -96 -16
177 -5 160 -5 296 -1 303 4 6 3 50 -1 98 l-8 87 -8 -64 c-5 -35 -16 -77 -25
-95 -14 -25 -18 -84 -25 -331 -4 -165 -10 -307 -12 -315 -2 -8 -4 53 -5 135
-1 83 -4 182 -9 220 l-7 70 -5 -65 -5 -65 -14 45 c-9 31 -12 93 -11 200 6 357
5 417 -7 431 -11 13 -28 99 -36 179 -3 30 -4 29 -5 -10 -1 -25 5 -99 13 -164
13 -108 14 -138 1 -125 -3 2 -12 38 -20 78 -9 41 -18 76 -21 79 -3 3 -5 -40
-5 -95 0 -56 -8 -138 -17 -184 -11 -54 -16 -130 -16 -212 1 -71 -3 -125 -8
-120 -16 16 -29 225 -19 318 16 148 10 182 -10 60 -13 -76 -19 -164 -19 -285
0 -96 -5 -191 -10 -210 -7 -28 -9 -16 -10 64 -1 54 -8 124 -16 155 -18 72 -22
174 -11 338 8 118 6 147 -14 268 -16 90 -27 132 -33 126 -7 -7 -6 -42 1 -105
14 -109 16 -237 4 -218 -5 8 -14 -28 -22 -90 -23 -176 -30 -198 -22 -68 10
183 9 330 -4 338 -6 4 -16 30 -21 57 -8 40 -10 23 -6 -90 2 -77 0 -132 -5
-122 -6 14 -11 2 -21 -45 -7 -35 -18 -69 -24 -77 -9 -10 -11 -79 -9 -240 4
-232 -15 -571 -29 -532 -5 11 -8 114 -8 228 0 114 -5 272 -12 351 -10 116 -10
170 1 283 7 77 11 142 8 144 -2 3 -12 -53 -21 -123 -18 -141 -27 -686 -17
-1077 2 -73 -2 -143 -7 -160 -9 -24 -11 -10 -12 79 0 59 -8 144 -16 188 -9 44
-20 128 -24 187 -6 75 -9 90 -10 51 -1 -30 -6 -64 -10 -75 -18 -43 -33 64 -27
180 3 60 2 130 -2 155 -6 39 -9 27 -21 -90 -17 -173 -18 -216 -7 -380 7 -118
6 -148 -13 -245 -11 -60 -22 -130 -25 -155 -5 -53 1 100 10 251 4 65 2 132 -5
173 -6 36 -14 110 -17 163 -7 116 -15 145 -24 83 -4 -25 -8 49 -8 163 -2 195
-24 454 -42 486 -4 8 -11 -129 -15 -305 -3 -175 -7 -346 -8 -379 -1 -33 1
-118 5 -190 4 -86 3 -106 -2 -60 -5 39 -15 106 -24 150 -8 44 -16 143 -17 220
-3 230 -21 75 -23 -195 -1 -179 -4 -230 -16 -250 l-15 -25 -4 25 c-3 23 -4 24
-12 5 -5 -12 -7 7 -4 50 3 39 1 95 -4 125 -8 52 -9 49 -10 -47 0 -56 -5 -103
-10 -105 -5 -1 -17 -41 -27 -87 -16 -83 -16 -99 0 -296 4 -45 0 -33 -15 45
-20 107 -21 157 -3 408 5 61 2 99 -10 140 -27 98 -38 240 -36 452 1 113 -2
201 -6 197 -4 -4 -11 -76 -16 -160 -4 -84 -11 -192 -15 -242 l-8 -90 -6 85
c-4 47 -5 -5 -3 -116 4 -175 2 -215 -17 -310 -17 -89 -20 -131 -16 -229 4 -91
3 -111 -5 -85 -5 19 -14 40 -19 46 -20 25 -22 171 -4 301 17 121 17 135 2 259
-10 72 -18 153 -18 180 -1 29 -4 39 -7 24 -2 -14 1 -82 8 -152 9 -94 9 -139 1
-175 -22 -98 -41 -230 -42 -293 l-1 -65 -13 75 c-8 41 -12 102 -10 135 l5 60
-15 -50 c-17 -59 -22 -195 -11 -322 4 -51 4 -120 0 -155 l-8 -63 -7 100 c-8
103 -55 387 -69 415 -4 8 -4 44 0 80 8 61 6 80 -5 68 -3 -2 -12 -40 -21 -84
-12 -57 -15 -103 -10 -164 14 -189 17 -297 8 -340 -8 -36 -9 -25 -6 60 l3 105
-13 -80 -13 -80 -2 95 c0 52 -10 141 -21 198 -23 118 -25 189 -8 322 8 69 8
114 1 160 l-10 65 -2 -81 c0 -44 -8 -103 -16 -130 -32 -105 -36 -168 -20 -299
8 -68 15 -147 14 -177 -1 -45 -3 -39 -14 44 -8 54 -21 135 -31 180 -16 80 -16
148 1 298 l5 45 -14 -50 c-10 -37 -14 -43 -16 -25 -3 34 -29 -92 -31 -155 -2
-46 -3 -44 -8 20 -4 39 0 118 7 180 13 105 13 119 -12 290 l-26 180 7 -155 c9
-195 6 -271 -12 -340 l-14 -55 5 60 c3 33 7 79 11 103 3 27 1 42 -6 42 -11 0
-12 -1 -36 -130 -29 -149 -35 -164 -30 -75 3 68 2 74 -6 40 -5 -22 -10 -134
-11 -250 -1 -168 -3 -197 -10 -145 -5 36 -18 112 -30 170 -23 114 -27 241 -13
402 6 70 4 124 -6 190 -8 57 -13 159 -12 263 3 198 -12 206 -23 12 -4 -81 -2
-176 6 -266 13 -134 12 -146 -8 -249 -12 -60 -22 -119 -22 -133 0 -13 -7 -33
-15 -43 -14 -18 -15 -11 -16 75 -1 76 -3 87 -10 59 -5 -19 -9 -78 -8 -130 1
-52 0 -117 -1 -145 -2 -45 -3 -47 -10 -20 -5 22 -8 7 -9 -52 0 -46 -4 -83 -9
-83 -14 0 -31 -54 -45 -140 -13 -80 -14 -83 -25 -57 -9 21 -9 52 -2 115 14
122 12 225 -4 291 -32 124 -38 215 -22 327 20 129 20 190 1 324 -8 58 -16 141
-16 185 -1 61 -3 75 -11 60 -8 -13 -8 -73 -3 -189 11 -217 10 -249 -11 -364
-16 -91 -16 -169 1 -332 3 -37 2 -34 -12 20 -14 60 -19 245 -10 412 1 28 -2
47 -8 45 -5 -1 -13 12 -16 28 -7 30 -7 30 -8 3 0 -15 -5 -29 -10 -33 -6 -3
-17 -40 -27 -82 -13 -62 -15 -98 -9 -197 11 -166 10 -335 -2 -501 -10 -148
-12 -139 -18 90 -3 124 -20 276 -49 428 -13 70 -22 135 -21 145 2 9 6 40 8 67
l5 50 -13 -40 c-8 -22 -14 -54 -14 -72 -1 -17 -6 -35 -12 -39 -8 -4 -9 -32 -5
-88 17 -226 18 -271 2 -331 l-16 -60 5 85 c3 47 1 101 -4 120 -5 19 -17 84
-27 143 -12 72 -21 102 -26 90 -10 -22 -1 197 11 282 9 68 3 185 -10 185 -5 0
-9 -28 -9 -63 0 -35 -9 -112 -20 -172 -11 -60 -20 -152 -21 -204 -1 -80 -2
-91 -11 -66 -6 17 -10 95 -9 183 3 226 3 324 -4 810 -5 353 -3 445 7 457 7 9
38 44 69 78 47 51 134 157 273 329 142 177 351 493 452 685 l48 92 36 -21 c19
-12 60 -41 90 -64z m2431 -190 l-10 -49 4 49 c3 27 6 79 7 115 l2 66 3 -66 c2
-37 -1 -89 -6 -115z m-3867 -62 c-5 -79 -2 -146 11 -244 17 -133 17 -137 -4
-265 -11 -72 -21 -134 -21 -139 0 -5 -5 -2 -10 6 -9 13 -10 13 -10 0 0 -13 -1
-13 -10 0 -7 10 -8 61 -4 140 3 69 3 122 0 119 -18 -17 -37 -175 -36 -299 1
-74 1 -153 0 -175 -2 -39 -3 -39 -10 -10 -4 17 -8 53 -9 80 -1 31 -5 45 -10
37 -10 -17 -34 288 -27 348 l5 45 -15 -55 c-11 -38 -18 -115 -21 -245 -4 -159
-8 -195 -23 -220 -10 -16 -21 -50 -24 -75 -14 -94 -24 -71 -30 71 -4 79 -12
168 -18 198 -16 83 13 285 59 421 29 83 112 244 158 308 25 34 48 62 50 62 3
0 2 -49 -1 -108z m-657 -274 c-3 -8 -6 -5 -6 6 -1 11 2 17 5 13 3 -3 4 -12 1
-19z m4499 -353 c28 -33 57 -77 63 -97 7 -21 17 -37 24 -35 17 3 68 -98 94
-187 20 -70 23 -101 22 -240 0 -159 -23 -378 -29 -291 -2 22 -4 49 -5 60 -1
11 -3 52 -5 90 l-3 70 -11 -85 -12 -85 -8 107 c-5 72 -13 111 -22 119 -10 8
-14 35 -14 95 0 88 -15 114 -24 42 -3 -24 -7 -101 -10 -172 -5 -128 -10 -152
-25 -127 -17 27 -23 -30 -16 -135 4 -57 5 -104 2 -104 -15 0 -30 187 -28 348
1 103 -2 181 -7 178 -22 -14 -32 -309 -18 -526 5 -81 4 -139 -3 -165 -10 -40
-10 -40 -9 20 1 33 0 74 -1 90 -3 30 -3 30 -11 5 -4 -14 -9 -41 -11 -60 -1
-19 -6 17 -11 80 -10 128 -19 1030 -12 1072 6 31 5 32 90 -67z m-4719 -217
c-3 -7 -5 -2 -5 12 0 14 2 19 5 13 2 -7 2 -19 0 -25z m1299 -613 c-3 -389 -6
-472 -21 -539 -13 -59 -16 -104 -11 -170 3 -50 8 -136 12 -191 5 -81 3 -106
-10 -130 -16 -29 -16 -28 -16 60 0 50 -7 128 -15 175 -19 107 -19 200 0 323
14 95 11 192 -6 203 -5 3 -9 -25 -10 -63 0 -37 -9 -111 -19 -163 -17 -82 -19
-87 -15 -35 16 196 17 243 7 261 -9 15 -12 8 -12 -41 0 -33 -10 -100 -20 -150
-11 -49 -18 -70 -15 -45 16 145 17 204 5 281 -19 126 -28 136 -23 24 4 -77 1
-125 -16 -211 -25 -129 -26 -201 -6 -339 8 -55 14 -120 14 -145 -1 -30 -6 -11
-14 55 -8 56 -21 138 -29 184 -9 46 -16 104 -17 130 0 37 -2 42 -10 26 -7 -14
-8 -6 -4 30 22 204 12 236 -20 68 -13 -69 -16 -117 -11 -185 14 -217 17 -313
7 -298 -5 9 -15 54 -21 100 -6 47 -15 101 -20 120 -23 88 -28 174 -18 288 7
71 8 145 3 187 l-9 70 -8 -65 c-7 -54 -25 -159 -52 -310 -3 -14 -3 46 0 133 3
86 2 157 0 157 -3 0 -11 -20 -17 -45 -12 -47 -25 -58 -32 -27 -3 12 -10 4 -25
-28 l-22 -45 0 50 c0 28 -5 57 -10 65 -8 12 -10 12 -10 1 0 -29 -10 -3 -15 40
-10 85 -17 119 -26 125 -5 3 -9 17 -9 32 1 28 -3 25 234 252 66 63 137 134
158 158 23 26 38 37 38 28 0 -32 27 -16 33 19 4 22 21 51 49 81 l43 46 7 -44
c5 -23 6 -250 4 -503z m-1679 503 c-3 -7 -5 -2 -5 12 0 14 2 19 5 13 2 -7 2
-19 0 -25z m5130 -790 c-2 -24 -4 -5 -4 42 0 47 2 66 4 43 2 -24 2 -62 0 -85z
m-110 -30 c-3 -8 -6 -5 -6 6 -1 11 2 17 5 13 3 -3 4 -12 1 -19z m30 -70 c-3
-7 -5 -2 -5 12 0 14 2 19 5 13 2 -7 2 -19 0 -25z m-1300 -175 c-3 -10 -5 -2
-5 17 0 19 2 27 5 18 2 -10 2 -26 0 -35z m960 -20 c-3 -10 -5 -2 -5 17 0 19 2
27 5 18 2 -10 2 -26 0 -35z m140 5 c-3 -8 -6 -5 -6 6 -1 11 2 17 5 13 3 -3 4
-12 1 -19z m-2410 -560 c-3 -7 -5 -2 -5 12 0 14 2 19 5 13 2 -7 2 -19 0 -25z
m-350 -30 c-3 -7 -5 -2 -5 12 0 14 2 19 5 13 2 -7 2 -19 0 -25z m460 -55 c-3
-10 -5 -2 -5 17 0 19 2 27 5 18 2 -10 2 -26 0 -35z m-460 -35 c-2 -13 -4 -3
-4 22 0 25 2 35 4 23 2 -13 2 -33 0 -45z m-10 -75 c-3 -10 -5 -4 -5 12 0 17 2
24 5 18 2 -7 2 -21 0 -30z m640 -395 c-2 -13 -4 -5 -4 17 -1 22 1 32 4 23 2
-10 2 -28 0 -40z"/>
<path d="M6221 7854 c0 -11 3 -14 6 -6 3 7 2 16 -1 19 -3 4 -6 -2 -5 -13z"/>
<path d="M4221 6874 c0 -11 3 -14 6 -6 3 7 2 16 -1 19 -3 4 -6 -2 -5 -13z"/>
<path d="M8591 4804 c0 -11 3 -14 6 -6 3 7 2 16 -1 19 -3 4 -6 -2 -5 -13z"/>
<path d="M7471 3794 c0 -11 3 -14 6 -6 3 7 2 16 -1 19 -3 4 -6 -2 -5 -13z"/>
<path d="M3762 10530 c0 -14 2 -19 5 -12 2 6 2 18 0 25 -3 6 -5 1 -5 -13z"/>
<path d="M3152 10000 c0 -14 2 -19 5 -12 2 6 2 18 0 25 -3 6 -5 1 -5 -13z"/>
<path d="M6501 9524 c0 -11 3 -14 6 -6 3 7 2 16 -1 19 -3 4 -6 -2 -5 -13z"/>
<path d="M2942 9510 c0 -14 2 -19 5 -12 2 6 2 18 0 25 -3 6 -5 1 -5 -13z"/>
<path d="M7602 8950 c0 -14 2 -19 5 -12 2 6 2 18 0 25 -3 6 -5 1 -5 -13z"/>
<path d="M9501 7474 c0 -11 3 -14 6 -6 3 7 2 16 -1 19 -3 4 -6 -2 -5 -13z"/>
<path d="M9873 7195 c0 -22 2 -30 4 -17 2 12 2 30 0 40 -3 9 -5 -1 -4 -23z"/>
<path d="M8342 7130 c0 -19 2 -27 5 -17 2 9 2 25 0 35 -3 9 -5 1 -5 -18z"/>
</g>
</svg>
