<?xml version="1.0" standalone="no"?>
<!DOCTYPE svg PUBLIC "-//W3C//DTD SVG 20010904//EN"
 "http://www.w3.org/TR/2001/REC-SVG-20010904/DTD/svg10.dtd">
<svg version="1.0" xmlns="http://www.w3.org/2000/svg"
 width="1280.000000pt" height="985.000000pt" viewBox="0 0 1280.000000 985.000000"
 preserveAspectRatio="xMidYMid meet">
<metadata>
Created by potrace 1.15, written by Peter Selinger 2001-2017
</metadata>
<g transform="translate(0.000000,985.000000) scale(0.100000,-0.100000)"
fill="#607d8b" stroke="none">
<path d="M5790 9159 c-1134 -79 -2195 -390 -3015 -881 -921 -553 -1529 -1283
-1740 -2090 -125 -484 -126 -852 -3 -1328 22 -85 41 -165 42 -177 0 -13 5 -23
10 -23 4 0 5 -7 2 -16 -4 -9 -2 -13 5 -8 7 4 9 0 5 -12 -6 -20 38 -154 97
-289 412 -958 1445 -1781 2777 -2213 758 -247 1585 -367 2385 -348 235 5 576
25 700 41 446 57 772 117 1138 210 185 47 259 47 348 3 69 -35 143 -104 656
-612 144 -142 267 -262 273 -266 6 -4 129 -124 273 -267 375 -372 523 -511
569 -534 54 -27 120 -29 154 -4 14 11 25 22 24 25 -1 3 18 25 43 50 30 30 49
60 57 90 13 47 11 58 -39 285 -11 50 -45 207 -76 350 -31 143 -65 298 -75 345
-10 47 -51 234 -90 415 -39 182 -80 368 -90 415 -69 316 -110 513 -110 528 0
22 96 116 215 212 313 250 564 521 768 829 107 161 200 328 191 343 -5 7 -3 8
6 3 10 -6 12 -4 7 9 -4 9 -3 15 2 12 4 -3 13 6 20 20 6 14 7 23 1 19 -6 -3 -7
1 -4 9 3 9 11 13 17 9 5 -3 7 -2 4 4 -3 5 16 61 44 123 98 218 178 504 215
765 23 162 23 468 0 630 -50 350 -161 690 -317 971 -293 527 -724 973 -1314
1360 -809 530 -1854 870 -3015 980 -203 19 -957 28 -1160 13z m-4423 -3871
c-3 -8 -6 -5 -6 6 -1 11 2 17 5 13 3 -3 4 -12 1 -19z m90 -378 c167 -487 438
-892 851 -1273 141 -131 314 -271 454 -368 161 -113 163 -122 3 -15 -399 265
-766 621 -992 960 -186 280 -321 593 -378 872 -14 68 -25 131 -24 141 0 10 11
-31 24 -92 13 -60 41 -162 62 -225z"/>
</g>
</svg>
