<?xml version="1.0" standalone="no"?>
<!DOCTYPE svg PUBLIC "-//W3C//DTD SVG 20010904//EN"
 "http://www.w3.org/TR/2001/REC-SVG-20010904/DTD/svg10.dtd">
<svg version="1.0" xmlns="http://www.w3.org/2000/svg"
 width="1280.000000pt" height="676.000000pt" viewBox="0 0 1280.000000 676.000000"
 preserveAspectRatio="xMidYMid meet">
<metadata>
Created by potrace 1.15, written by Peter Selinger 2001-2017
</metadata>
<g transform="translate(0.000000,676.000000) scale(0.100000,-0.100000)"
fill="#e91e63" stroke="none">
<path d="M10715 6618 c-1850 -759 -2465 -1030 -2465 -1086 0 -4 121 -106 270
-227 148 -121 269 -223 270 -226 0 -5 -160 -197 -311 -373 l-27 -31 -376 369
c-327 321 -381 369 -407 369 -25 0 -47 -16 -120 -89 l-89 -89 -243 240 c-826
818 -781 775 -815 775 -30 0 -87 -53 -620 -578 -323 -318 -609 -598 -635 -622
-61 -55 -80 -90 -68 -123 5 -13 17 -27 26 -31 9 -3 187 -6 396 -6 l379 0 0
-932 0 -933 -152 150 c-84 83 -242 237 -350 344 l-197 195 5 40 6 41 -428 420
c-236 231 -528 518 -650 638 -178 174 -227 217 -249 217 -22 0 -126 -97 -583
-546 -780 -766 -742 -727 -742 -757 0 -58 -4 -57 416 -57 l384 0 0 -687 0
-688 -157 155 c-87 85 -246 241 -353 347 -121 119 -205 194 -222 198 -25 7
-47 -12 -265 -223 -131 -127 -292 -285 -358 -351 -66 -67 -122 -121 -125 -121
-3 0 -5 449 -5 997 l0 998 383 5 384 5 20 24 c11 15 17 33 14 46 -6 22 -279
296 -926 929 -279 273 -380 366 -398 366 -18 0 -96 -71 -300 -269 -602 -586
-1033 -1017 -1032 -1032 0 -9 9 -27 19 -40 l19 -24 386 -3 386 -3 0 -2147 c0
-1181 4 -2152 8 -2158 21 -32 52 -34 514 -34 352 0 469 3 488 13 17 8 28 25
34 52 5 22 11 42 13 44 3 4 167 30 193 31 11 0 15 -13 16 -51 2 -89 -30 -84
502 -87 257 -1 477 0 489 3 49 12 53 25 53 199 l0 163 110 30 110 30 0 -187
c0 -170 2 -190 19 -211 l19 -24 481 -3 481 -3 25 25 25 25 0 353 0 354 110 36
110 36 0 -393 0 -394 27 -21 c26 -20 32 -21 504 -18 444 3 480 4 496 21 17 17
18 57 21 616 l2 598 98 42 c53 24 103 45 110 48 9 4 12 -128 12 -638 0 -354 4
-649 8 -655 21 -32 52 -34 514 -34 353 0 469 3 488 13 l25 13 5 909 5 910 105
57 c58 32 108 58 113 58 4 0 7 -434 7 -964 0 -884 1 -965 17 -977 13 -11 105
-15 482 -17 256 -1 476 0 488 3 57 14 53 -79 54 1328 l0 1292 107 82 107 82 5
-1374 c5 -1302 6 -1375 23 -1392 16 -17 52 -18 496 -21 472 -3 478 -2 504 18
l27 21 0 1665 0 1664 110 0 110 0 0 -1663 0 -1664 21 -19 c20 -18 43 -19 506
-19 l485 0 19 24 c18 22 19 54 19 1022 l0 999 110 0 110 0 0 -1004 c0 -1093
-3 -1027 53 -1041 12 -3 232 -4 489 -3 433 3 469 4 485 21 17 17 18 73 21
1022 l2 1005 378 0 c409 0 405 -1 418 55 7 28 -4 40 -234 265 -132 129 -425
416 -650 638 -366 358 -413 402 -442 402 -28 0 -66 -34 -338 -302 -169 -167
-329 -323 -355 -348 l-47 -44 0 497 0 497 385 0 385 0 16 25 c9 14 14 34 10
48 -3 12 -52 67 -108 122 -57 55 -253 247 -436 427 l-333 328 206 1007 c114
555 210 1022 215 1040 5 22 4 35 -3 41 -8 6 -131 -39 -352 -130z m-3695 -1813
c-47 -47 -88 -85 -92 -85 -10 0 -11 154 -1 163 3 4 45 7 92 7 l86 0 -85 -85z
m130 -1094 l0 -339 -107 -91 c-59 -50 -110 -91 -115 -91 -4 0 -8 194 -8 430
l0 430 115 0 115 0 0 -339z m-2080 -8 c0 -5 -153 -158 -340 -341 l-340 -334 0
341 0 341 340 0 c187 0 340 -3 340 -7z m-460 -1727 l0 -395 -87 -49 c-49 -27
-98 -54 -110 -61 l-23 -12 0 456 0 455 110 0 110 0 0 -394z m1245 386 c-11 -9
-162 -114 -182 -126 -10 -5 -13 10 -13 63 l0 71 102 0 c56 0 98 -4 93 -8z
m-3783 -1314 c-1 -342 -6 -626 -10 -630 -4 -3 -51 -23 -104 -42 l-98 -35 0
664 0 665 108 0 107 0 -3 -622z m1268 255 l0 -368 -101 -45 c-56 -25 -106 -46
-110 -48 -5 -2 -9 181 -9 412 l0 416 110 0 110 0 0 -367z"/>
</g>
</svg>
